# MagicaVoxel @ Ephtracy

# group
g Ripped Page

# material
mtllib Ripped Page.mtl
usemtl palette

# normals
vn -1 0 0
vn 1 0 0
vn 0 0 1
vn 0 0 -1
vn 0 -1 0
vn 0 1 0

# texcoords
vt 0.970703 0.5
vt 0.974609 0.5
vt 0.982422 0.5
vt 0.986328 0.5
vt 0.990234 0.5

# verts
v -3.5 1 0.5
v -3.5 1 -0.5
v -3.5 3 0.5
v -3.5 3 -0.5
v -3.5 4 0.5
v -3.5 4 -0.5
v -3.5 8 0.5
v -3.5 8 -0.5
v -3.5 9 0.5
v -3.5 9 -0.5
v -3.5 10 0.5
v -3.5 10 -0.5
v -2.5 4 0.5
v -2.5 4 -0.5
v -2.5 5 0.5
v -2.5 5 -0.5
v -2.5 6 0.5
v -2.5 6 -0.5
v -2.5 7 0.5
v -2.5 7 -0.5
v -2.5 8 0.5
v -2.5 8 -0.5
v -0.5 9 0.5
v -0.5 9 -0.5
v -0.5 10 0.5
v -0.5 10 -0.5
v 0.5 1 0.5
v 0.5 1 -0.5
v 0.5 2 0.5
v 0.5 2 -0.5
v -1.5 9 0.5
v -1.5 9 -0.5
v -1.5 10 0.5
v -1.5 10 -0.5
v -0.5 1 0.5
v -0.5 1 -0.5
v -0.5 2 0.5
v -0.5 2 -0.5
v 1.5 9 0.5
v 1.5 9 -0.5
v 1.5 10 0.5
v 1.5 10 -0.5
v 2.5 1 0.5
v 2.5 1 -0.5
v 2.5 2 0.5
v 2.5 2 -0.5
v 2.5 4 0.5
v 2.5 4 -0.5
v 2.5 6 0.5
v 2.5 6 -0.5
v 2.5 8 0.5
v 2.5 8 -0.5
v 2.5 9 0.5
v 2.5 9 -0.5
v 3.5 2 0.5
v 3.5 2 -0.5
v 3.5 3 0.5
v 3.5 3 -0.5
v 3.5 4 0.5
v 3.5 4 -0.5
v 3.5 6 0.5
v 3.5 6 -0.5
v 3.5 8 0.5
v 3.5 8 -0.5
v -3.5 1 0.5
v -3.5 3 0.5
v -3.5 4 0.5
v -3.5 8 0.5
v -3.5 9 0.5
v -3.5 10 0.5
v -2.5 1 0.5
v -2.5 3 0.5
v -2.5 4 0.5
v -2.5 5 0.5
v -2.5 6 0.5
v -2.5 7 0.5
v -2.5 8 0.5
v -2.5 9 0.5
v -2.5 10 0.5
v -1.5 1 0.5
v -1.5 2 0.5
v -1.5 3 0.5
v -1.5 4 0.5
v -1.5 5 0.5
v -1.5 6 0.5
v -1.5 7 0.5
v -1.5 8 0.5
v -1.5 9 0.5
v -1.5 10 0.5
v -0.5 1 0.5
v -0.5 2 0.5
v -0.5 3 0.5
v -0.5 5 0.5
v -0.5 6 0.5
v -0.5 9 0.5
v -0.5 10 0.5
v 0.5 1 0.5
v 0.5 2 0.5
v 0.5 3 0.5
v 0.5 7 0.5
v 0.5 8 0.5
v 1.5 1 0.5
v 1.5 2 0.5
v 1.5 3 0.5
v 1.5 4 0.5
v 1.5 5 0.5
v 1.5 6 0.5
v 1.5 8 0.5
v 1.5 9 0.5
v 1.5 10 0.5
v 2.5 1 0.5
v 2.5 2 0.5
v 2.5 3 0.5
v 2.5 4 0.5
v 2.5 6 0.5
v 2.5 8 0.5
v 2.5 9 0.5
v 3.5 2 0.5
v 3.5 3 0.5
v 3.5 4 0.5
v 3.5 6 0.5
v 3.5 8 0.5
v -3.5 1 -0.5
v -3.5 3 -0.5
v -3.5 4 -0.5
v -3.5 8 -0.5
v -3.5 9 -0.5
v -3.5 10 -0.5
v -2.5 1 -0.5
v -2.5 3 -0.5
v -2.5 4 -0.5
v -2.5 5 -0.5
v -2.5 6 -0.5
v -2.5 7 -0.5
v -2.5 8 -0.5
v -2.5 9 -0.5
v -2.5 10 -0.5
v -1.5 1 -0.5
v -1.5 2 -0.5
v -1.5 3 -0.5
v -1.5 4 -0.5
v -1.5 5 -0.5
v -1.5 6 -0.5
v -1.5 7 -0.5
v -1.5 8 -0.5
v -1.5 9 -0.5
v -1.5 10 -0.5
v -0.5 1 -0.5
v -0.5 2 -0.5
v -0.5 3 -0.5
v -0.5 5 -0.5
v -0.5 6 -0.5
v -0.5 9 -0.5
v -0.5 10 -0.5
v 0.5 1 -0.5
v 0.5 2 -0.5
v 0.5 3 -0.5
v 0.5 7 -0.5
v 0.5 8 -0.5
v 1.5 1 -0.5
v 1.5 2 -0.5
v 1.5 3 -0.5
v 1.5 4 -0.5
v 1.5 5 -0.5
v 1.5 6 -0.5
v 1.5 8 -0.5
v 1.5 9 -0.5
v 1.5 10 -0.5
v 2.5 1 -0.5
v 2.5 2 -0.5
v 2.5 3 -0.5
v 2.5 4 -0.5
v 2.5 6 -0.5
v 2.5 8 -0.5
v 2.5 9 -0.5
v 3.5 2 -0.5
v 3.5 3 -0.5
v 3.5 4 -0.5
v 3.5 6 -0.5
v 3.5 8 -0.5
v -3.5 1 0.5
v -2.5 1 0.5
v -1.5 1 0.5
v -0.5 1 0.5
v 0.5 1 0.5
v 1.5 1 0.5
v 2.5 1 0.5
v -3.5 1 -0.5
v -2.5 1 -0.5
v -1.5 1 -0.5
v -0.5 1 -0.5
v 0.5 1 -0.5
v 1.5 1 -0.5
v 2.5 1 -0.5
v -0.5 2 0.5
v 0.5 2 0.5
v 2.5 2 0.5
v 3.5 2 0.5
v -0.5 2 -0.5
v 0.5 2 -0.5
v 2.5 2 -0.5
v 3.5 2 -0.5
v 2.5 6 0.5
v 3.5 6 0.5
v 2.5 6 -0.5
v 3.5 6 -0.5
v -3.5 8 0.5
v -2.5 8 0.5
v -3.5 8 -0.5
v -2.5 8 -0.5
v -3.5 4 0.5
v -2.5 4 0.5
v 2.5 4 0.5
v 3.5 4 0.5
v -3.5 4 -0.5
v -2.5 4 -0.5
v 2.5 4 -0.5
v 3.5 4 -0.5
v 2.5 8 0.5
v 3.5 8 0.5
v 2.5 8 -0.5
v 3.5 8 -0.5
v -1.5 9 0.5
v -0.5 9 0.5
v 1.5 9 0.5
v 2.5 9 0.5
v -1.5 9 -0.5
v -0.5 9 -0.5
v 1.5 9 -0.5
v 2.5 9 -0.5
v -3.5 10 0.5
v -2.5 10 0.5
v -1.5 10 0.5
v -0.5 10 0.5
v 1.5 10 0.5
v -3.5 10 -0.5
v -2.5 10 -0.5
v -1.5 10 -0.5
v -0.5 10 -0.5
v 1.5 10 -0.5

# faces
f 3/5/1 2/5/1 1/5/1
f 4/5/1 2/5/1 3/5/1
f 5/4/1 4/4/1 3/4/1
f 6/4/1 4/4/1 5/4/1
f 9/4/1 8/4/1 7/4/1
f 10/4/1 8/4/1 9/4/1
f 11/5/1 10/5/1 9/5/1
f 12/5/1 10/5/1 11/5/1
f 15/4/1 14/4/1 13/4/1
f 16/4/1 14/4/1 15/4/1
f 17/5/1 16/5/1 15/5/1
f 18/5/1 16/5/1 17/5/1
f 19/4/1 18/4/1 17/4/1
f 20/4/1 18/4/1 19/4/1
f 21/2/1 20/2/1 19/2/1
f 22/2/1 20/2/1 21/2/1
f 25/1/1 24/1/1 23/1/1
f 26/1/1 24/1/1 25/1/1
f 29/5/1 28/5/1 27/5/1
f 30/5/1 28/5/1 29/5/1
f 31/1/2 32/1/2 33/1/2
f 33/1/2 32/1/2 34/1/2
f 35/5/2 36/5/2 37/5/2
f 37/5/2 36/5/2 38/5/2
f 39/1/2 40/1/2 41/1/2
f 41/1/2 40/1/2 42/1/2
f 43/4/2 44/4/2 45/4/2
f 45/4/2 44/4/2 46/4/2
f 47/2/2 48/2/2 49/2/2
f 49/2/2 48/2/2 50/2/2
f 51/1/2 52/1/2 53/1/2
f 53/1/2 52/1/2 54/1/2
f 55/5/2 56/5/2 57/5/2
f 57/5/2 56/5/2 58/5/2
f 57/2/2 58/2/2 59/2/2
f 59/2/2 58/2/2 60/2/2
f 61/1/2 62/1/2 63/1/2
f 63/1/2 62/1/2 64/1/2
f 71/5/3 66/5/3 65/5/3
f 72/4/3 67/4/3 66/4/3
f 72/5/3 66/5/3 71/5/3
f 73/4/3 67/4/3 72/4/3
f 77/4/3 69/4/3 68/4/3
f 78/5/3 70/5/3 69/5/3
f 78/4/3 69/4/3 77/4/3
f 79/5/3 70/5/3 78/5/3
f 80/4/3 72/4/3 71/4/3
f 81/4/3 72/4/3 80/4/3
f 82/2/3 73/2/3 72/2/3
f 82/4/3 72/4/3 81/4/3
f 83/4/3 74/4/3 73/4/3
f 83/2/3 73/2/3 82/2/3
f 84/5/3 75/5/3 74/5/3
f 84/4/3 74/4/3 83/4/3
f 85/4/3 76/4/3 75/4/3
f 85/5/3 75/5/3 84/5/3
f 86/2/3 77/2/3 76/2/3
f 86/4/3 76/4/3 85/4/3
f 86/2/3 78/2/3 77/2/3
f 87/2/3 78/2/3 86/2/3
f 88/1/3 79/1/3 78/1/3
f 88/2/3 78/2/3 87/2/3
f 89/1/3 79/1/3 88/1/3
f 90/5/3 81/5/3 80/5/3
f 91/2/3 82/2/3 81/2/3
f 91/5/3 81/5/3 90/5/3
f 92/3/3 83/3/3 82/3/3
f 92/2/3 82/2/3 91/2/3
f 93/4/3 85/4/3 84/4/3
f 93/2/3 84/2/3 83/2/3
f 94/2/3 86/2/3 85/2/3
f 94/4/3 85/4/3 93/4/3
f 95/2/3 88/2/3 87/2/3
f 98/4/3 92/4/3 91/4/3
f 99/3/3 83/3/3 92/3/3
f 99/4/3 92/4/3 98/4/3
f 100/3/3 87/3/3 86/3/3
f 100/2/3 86/2/3 94/2/3
f 101/2/3 95/2/3 87/2/3
f 101/3/3 87/3/3 100/3/3
f 102/5/3 98/5/3 97/5/3
f 103/2/3 99/2/3 98/2/3
f 103/5/3 98/5/3 102/5/3
f 104/3/3 83/3/3 99/3/3
f 104/2/3 99/2/3 103/2/3
f 105/2/3 93/2/3 83/2/3
f 105/3/3 83/3/3 104/3/3
f 106/3/3 94/3/3 93/3/3
f 106/2/3 93/2/3 105/2/3
f 107/2/3 100/2/3 94/2/3
f 107/3/3 94/3/3 106/3/3
f 107/2/3 101/2/3 100/2/3
f 108/2/3 95/2/3 101/2/3
f 108/2/3 101/2/3 107/2/3
f 109/1/3 96/1/3 95/1/3
f 109/2/3 95/2/3 108/2/3
f 110/1/3 96/1/3 109/1/3
f 111/4/3 103/4/3 102/4/3
f 112/2/3 107/2/3 106/2/3
f 112/4/3 103/4/3 111/4/3
f 112/2/3 106/2/3 105/2/3
f 112/2/3 108/2/3 107/2/3
f 112/2/3 104/2/3 103/2/3
f 112/2/3 105/2/3 104/2/3
f 113/2/3 108/2/3 112/2/3
f 114/2/3 108/2/3 113/2/3
f 115/2/3 108/2/3 114/2/3
f 116/1/3 109/1/3 108/1/3
f 116/2/3 108/2/3 115/2/3
f 117/1/3 109/1/3 116/1/3
f 118/5/3 113/5/3 112/5/3
f 119/2/3 114/2/3 113/2/3
f 119/5/3 113/5/3 118/5/3
f 120/2/3 114/2/3 119/2/3
f 121/1/3 116/1/3 115/1/3
f 122/1/3 116/1/3 121/1/3
f 123/5/4 124/5/4 129/5/4
f 124/4/4 125/4/4 130/4/4
f 129/5/4 124/5/4 130/5/4
f 130/4/4 125/4/4 131/4/4
f 126/4/4 127/4/4 135/4/4
f 127/5/4 128/5/4 136/5/4
f 135/4/4 127/4/4 136/4/4
f 136/5/4 128/5/4 137/5/4
f 129/4/4 130/4/4 138/4/4
f 138/4/4 130/4/4 139/4/4
f 130/2/4 131/2/4 140/2/4
f 139/4/4 130/4/4 140/4/4
f 131/4/4 132/4/4 141/4/4
f 140/2/4 131/2/4 141/2/4
f 132/5/4 133/5/4 142/5/4
f 141/4/4 132/4/4 142/4/4
f 133/4/4 134/4/4 143/4/4
f 142/5/4 133/5/4 143/5/4
f 134/2/4 135/2/4 144/2/4
f 143/4/4 134/4/4 144/4/4
f 135/2/4 136/2/4 144/2/4
f 144/2/4 136/2/4 145/2/4
f 136/1/4 137/1/4 146/1/4
f 145/2/4 136/2/4 146/2/4
f 146/1/4 137/1/4 147/1/4
f 138/5/4 139/5/4 148/5/4
f 139/2/4 140/2/4 149/2/4
f 148/5/4 139/5/4 149/5/4
f 140/3/4 141/3/4 150/3/4
f 149/2/4 140/2/4 150/2/4
f 142/4/4 143/4/4 151/4/4
f 141/2/4 142/2/4 151/2/4
f 143/2/4 144/2/4 152/2/4
f 151/4/4 143/4/4 152/4/4
f 145/2/4 146/2/4 153/2/4
f 149/4/4 150/4/4 156/4/4
f 150/3/4 141/3/4 157/3/4
f 156/4/4 150/4/4 157/4/4
f 144/3/4 145/3/4 158/3/4
f 152/2/4 144/2/4 158/2/4
f 145/2/4 153/2/4 159/2/4
f 158/3/4 145/3/4 159/3/4
f 155/5/4 156/5/4 160/5/4
f 156/2/4 157/2/4 161/2/4
f 160/5/4 156/5/4 161/5/4
f 157/3/4 141/3/4 162/3/4
f 161/2/4 157/2/4 162/2/4
f 141/2/4 151/2/4 163/2/4
f 162/3/4 141/3/4 163/3/4
f 151/3/4 152/3/4 164/3/4
f 163/2/4 151/2/4 164/2/4
f 152/2/4 158/2/4 165/2/4
f 164/3/4 152/3/4 165/3/4
f 158/2/4 159/2/4 165/2/4
f 159/2/4 153/2/4 166/2/4
f 165/2/4 159/2/4 166/2/4
f 153/1/4 154/1/4 167/1/4
f 166/2/4 153/2/4 167/2/4
f 167/1/4 154/1/4 168/1/4
f 160/4/4 161/4/4 169/4/4
f 164/2/4 165/2/4 170/2/4
f 169/4/4 161/4/4 170/4/4
f 163/2/4 164/2/4 170/2/4
f 165/2/4 166/2/4 170/2/4
f 161/2/4 162/2/4 170/2/4
f 162/2/4 163/2/4 170/2/4
f 170/2/4 166/2/4 171/2/4
f 171/2/4 166/2/4 172/2/4
f 172/2/4 166/2/4 173/2/4
f 166/1/4 167/1/4 174/1/4
f 173/2/4 166/2/4 174/2/4
f 174/1/4 167/1/4 175/1/4
f 170/5/4 171/5/4 176/5/4
f 171/2/4 172/2/4 177/2/4
f 176/5/4 171/5/4 177/5/4
f 177/2/4 172/2/4 178/2/4
f 173/1/4 174/1/4 179/1/4
f 179/1/4 174/1/4 180/1/4
f 188/5/5 182/5/5 181/5/5
f 189/4/5 183/4/5 182/4/5
f 189/5/5 182/5/5 188/5/5
f 190/5/5 184/5/5 183/5/5
f 190/4/5 183/4/5 189/4/5
f 191/5/5 184/5/5 190/5/5
f 192/5/5 186/5/5 185/5/5
f 193/4/5 187/4/5 186/4/5
f 193/5/5 186/5/5 192/5/5
f 194/4/5 187/4/5 193/4/5
f 199/4/5 196/4/5 195/4/5
f 200/4/5 196/4/5 199/4/5
f 201/5/5 198/5/5 197/5/5
f 202/5/5 198/5/5 201/5/5
f 205/1/5 204/1/5 203/1/5
f 206/1/5 204/1/5 205/1/5
f 209/4/5 208/4/5 207/4/5
f 210/4/5 208/4/5 209/4/5
f 211/4/6 212/4/6 215/4/6
f 215/4/6 212/4/6 216/4/6
f 213/2/6 214/2/6 217/2/6
f 217/2/6 214/2/6 218/2/6
f 219/1/6 220/1/6 221/1/6
f 221/1/6 220/1/6 222/1/6
f 223/2/6 224/2/6 227/2/6
f 227/2/6 224/2/6 228/2/6
f 225/1/6 226/1/6 229/1/6
f 229/1/6 226/1/6 230/1/6
f 231/5/6 232/5/6 236/5/6
f 232/1/6 233/1/6 237/1/6
f 236/5/6 232/5/6 237/5/6
f 237/1/6 233/1/6 238/1/6
f 234/1/6 235/1/6 239/1/6
f 239/1/6 235/1/6 240/1/6
