# MagicaVoxel @ Ephtracy

# group
g Axe

# material
mtllib Axe.mtl
usemtl palette

# normals
vn -1 0 0
vn 1 0 0
vn 0 0 1
vn 0 0 -1
vn 0 -1 0
vn 0 1 0

# texcoords
vt 0.201172 0.5
vt 0.369141 0.5
vt 0.962891 0.5
vt 0.970703 0.5
vt 0.978516 0.5
vt 0.982422 0.5

# verts
v -2.5 7 0.5
v -2.5 7 -0.5
v -2.5 9 0.5
v -2.5 9 -0.5
v -2.5 11 0.5
v -2.5 11 -0.5
v -1.5 6 0.5
v -1.5 6 -0.5
v -1.5 7 0.5
v -1.5 7 -0.5
v -1.5 11 0.5
v -1.5 11 -0.5
v -1.5 12 0.5
v -1.5 12 -0.5
v -0.5 5 0.5
v -0.5 5 -0.5
v -0.5 6 0.5
v -0.5 6 -0.5
v -0.5 12 0.5
v -0.5 12 -0.5
v -0.5 13 0.5
v -0.5 13 -0.5
v 1.5 0 0.5
v 1.5 0 -0.5
v 1.5 8 0.5
v 1.5 8 -0.5
v 1.5 10 0.5
v 1.5 10 -0.5
v 1.5 11 0.5
v 1.5 11 -0.5
v -0.5 6 0.5
v -0.5 6 -0.5
v -0.5 7 0.5
v -0.5 7 -0.5
v -0.5 11 0.5
v -0.5 11 -0.5
v -0.5 12 0.5
v -0.5 12 -0.5
v 0.5 5 0.5
v 0.5 5 -0.5
v 0.5 6 0.5
v 0.5 6 -0.5
v 0.5 7 0.5
v 0.5 7 -0.5
v 0.5 8 0.5
v 0.5 8 -0.5
v 0.5 10 0.5
v 0.5 10 -0.5
v 0.5 11 0.5
v 0.5 11 -0.5
v 0.5 12 0.5
v 0.5 12 -0.5
v 0.5 13 0.5
v 0.5 13 -0.5
v 2.5 0 0.5
v 2.5 0 -0.5
v 2.5 8 0.5
v 2.5 8 -0.5
v 2.5 9 0.5
v 2.5 9 -0.5
v 2.5 10 0.5
v 2.5 10 -0.5
v 2.5 11 0.5
v 2.5 11 -0.5
v -2.5 7 0.5
v -2.5 9 0.5
v -2.5 11 0.5
v -1.5 6 0.5
v -1.5 7 0.5
v -1.5 9 0.5
v -1.5 11 0.5
v -1.5 12 0.5
v -0.5 5 0.5
v -0.5 6 0.5
v -0.5 7 0.5
v -0.5 9 0.5
v -0.5 11 0.5
v -0.5 12 0.5
v -0.5 13 0.5
v 0.5 5 0.5
v 0.5 6 0.5
v 0.5 7 0.5
v 0.5 8 0.5
v 0.5 9 0.5
v 0.5 10 0.5
v 0.5 11 0.5
v 0.5 12 0.5
v 0.5 13 0.5
v 1.5 0 0.5
v 1.5 8 0.5
v 1.5 9 0.5
v 1.5 10 0.5
v 1.5 11 0.5
v 2.5 0 0.5
v 2.5 8 0.5
v 2.5 9 0.5
v 2.5 10 0.5
v 2.5 11 0.5
v -2.5 7 -0.5
v -2.5 9 -0.5
v -2.5 11 -0.5
v -1.5 6 -0.5
v -1.5 7 -0.5
v -1.5 9 -0.5
v -1.5 11 -0.5
v -1.5 12 -0.5
v -0.5 5 -0.5
v -0.5 6 -0.5
v -0.5 7 -0.5
v -0.5 9 -0.5
v -0.5 11 -0.5
v -0.5 12 -0.5
v -0.5 13 -0.5
v 0.5 5 -0.5
v 0.5 6 -0.5
v 0.5 7 -0.5
v 0.5 8 -0.5
v 0.5 9 -0.5
v 0.5 10 -0.5
v 0.5 11 -0.5
v 0.5 12 -0.5
v 0.5 13 -0.5
v 1.5 0 -0.5
v 1.5 8 -0.5
v 1.5 9 -0.5
v 1.5 10 -0.5
v 1.5 11 -0.5
v 2.5 0 -0.5
v 2.5 8 -0.5
v 2.5 9 -0.5
v 2.5 10 -0.5
v 2.5 11 -0.5
v 1.5 0 0.5
v 2.5 0 0.5
v 1.5 0 -0.5
v 2.5 0 -0.5
v -0.5 5 0.5
v 0.5 5 0.5
v -0.5 5 -0.5
v 0.5 5 -0.5
v -1.5 6 0.5
v -0.5 6 0.5
v -1.5 6 -0.5
v -0.5 6 -0.5
v -2.5 7 0.5
v -1.5 7 0.5
v -0.5 7 0.5
v 0.5 7 0.5
v -2.5 7 -0.5
v -1.5 7 -0.5
v -0.5 7 -0.5
v 0.5 7 -0.5
v 0.5 8 0.5
v 1.5 8 0.5
v 0.5 8 -0.5
v 1.5 8 -0.5
v -0.5 12 0.5
v 0.5 12 0.5
v -0.5 12 -0.5
v 0.5 12 -0.5
v -0.5 6 0.5
v 0.5 6 0.5
v -0.5 6 -0.5
v 0.5 6 -0.5
v 0.5 10 0.5
v 1.5 10 0.5
v 0.5 10 -0.5
v 1.5 10 -0.5
v -2.5 11 0.5
v -1.5 11 0.5
v -0.5 11 0.5
v 0.5 11 0.5
v 1.5 11 0.5
v 2.5 11 0.5
v -2.5 11 -0.5
v -1.5 11 -0.5
v -0.5 11 -0.5
v 0.5 11 -0.5
v 1.5 11 -0.5
v 2.5 11 -0.5
v -1.5 12 0.5
v -0.5 12 0.5
v -1.5 12 -0.5
v -0.5 12 -0.5
v -0.5 13 0.5
v 0.5 13 0.5
v -0.5 13 -0.5
v 0.5 13 -0.5

# faces
f 3/4/1 2/4/1 1/4/1
f 4/4/1 2/4/1 3/4/1
f 5/3/1 4/3/1 3/3/1
f 6/3/1 4/3/1 5/3/1
f 9/4/1 8/4/1 7/4/1
f 10/4/1 8/4/1 9/4/1
f 13/3/1 12/3/1 11/3/1
f 14/3/1 12/3/1 13/3/1
f 17/4/1 16/4/1 15/4/1
f 18/4/1 16/4/1 17/4/1
f 21/3/1 20/3/1 19/3/1
f 22/3/1 20/3/1 21/3/1
f 25/2/1 24/2/1 23/2/1
f 26/2/1 24/2/1 25/2/1
f 29/1/1 28/1/1 27/1/1
f 30/1/1 28/1/1 29/1/1
f 31/4/2 32/4/2 33/4/2
f 33/4/2 32/4/2 34/4/2
f 35/3/2 36/3/2 37/3/2
f 37/3/2 36/3/2 38/3/2
f 39/4/2 40/4/2 41/4/2
f 41/4/2 40/4/2 42/4/2
f 43/5/2 44/5/2 45/5/2
f 45/5/2 44/5/2 46/5/2
f 47/4/2 48/4/2 49/4/2
f 49/4/2 48/4/2 50/4/2
f 51/3/2 52/3/2 53/3/2
f 53/3/2 52/3/2 54/3/2
f 55/2/2 56/2/2 57/2/2
f 57/2/2 56/2/2 58/2/2
f 57/1/2 58/1/2 59/1/2
f 59/1/2 58/1/2 60/1/2
f 59/6/2 60/6/2 61/6/2
f 61/6/2 60/6/2 62/6/2
f 61/1/2 62/1/2 63/1/2
f 63/1/2 62/1/2 64/1/2
f 69/4/3 66/4/3 65/4/3
f 70/3/3 67/3/3 66/3/3
f 70/4/3 66/4/3 69/4/3
f 71/3/3 67/3/3 70/3/3
f 74/4/3 69/4/3 68/4/3
f 75/6/3 70/6/3 69/6/3
f 75/6/3 71/6/3 70/6/3
f 75/4/3 69/4/3 74/4/3
f 76/6/3 71/6/3 75/6/3
f 77/3/3 72/3/3 71/3/3
f 77/6/3 71/6/3 76/6/3
f 78/3/3 72/3/3 77/3/3
f 80/4/3 74/4/3 73/4/3
f 81/4/3 74/4/3 80/4/3
f 82/5/3 76/5/3 75/5/3
f 83/5/3 76/5/3 82/5/3
f 84/4/3 77/4/3 76/4/3
f 84/5/3 76/5/3 83/5/3
f 85/4/3 77/4/3 84/4/3
f 86/4/3 77/4/3 85/4/3
f 87/3/3 79/3/3 78/3/3
f 88/3/3 79/3/3 87/3/3
f 90/6/3 85/6/3 84/6/3
f 90/6/3 84/6/3 83/6/3
f 91/6/3 85/6/3 90/6/3
f 92/6/3 85/6/3 91/6/3
f 94/2/3 90/2/3 89/2/3
f 95/1/3 91/1/3 90/1/3
f 95/2/3 90/2/3 94/2/3
f 96/6/3 92/6/3 91/6/3
f 96/1/3 91/1/3 95/1/3
f 97/1/3 93/1/3 92/1/3
f 97/6/3 92/6/3 96/6/3
f 98/1/3 93/1/3 97/1/3
f 99/4/4 100/4/4 103/4/4
f 100/3/4 101/3/4 104/3/4
f 103/4/4 100/4/4 104/4/4
f 104/3/4 101/3/4 105/3/4
f 102/4/4 103/4/4 108/4/4
f 103/6/4 104/6/4 109/6/4
f 104/6/4 105/6/4 109/6/4
f 108/4/4 103/4/4 109/4/4
f 109/6/4 105/6/4 110/6/4
f 105/3/4 106/3/4 111/3/4
f 110/6/4 105/6/4 111/6/4
f 111/3/4 106/3/4 112/3/4
f 107/4/4 108/4/4 114/4/4
f 114/4/4 108/4/4 115/4/4
f 109/5/4 110/5/4 116/5/4
f 116/5/4 110/5/4 117/5/4
f 110/4/4 111/4/4 118/4/4
f 117/5/4 110/5/4 118/5/4
f 118/4/4 111/4/4 119/4/4
f 119/4/4 111/4/4 120/4/4
f 112/3/4 113/3/4 121/3/4
f 121/3/4 113/3/4 122/3/4
f 118/6/4 119/6/4 124/6/4
f 117/6/4 118/6/4 124/6/4
f 124/6/4 119/6/4 125/6/4
f 125/6/4 119/6/4 126/6/4
f 123/2/4 124/2/4 128/2/4
f 124/1/4 125/1/4 129/1/4
f 128/2/4 124/2/4 129/2/4
f 125/6/4 126/6/4 130/6/4
f 129/1/4 125/1/4 130/1/4
f 126/1/4 127/1/4 131/1/4
f 130/6/4 126/6/4 131/6/4
f 131/1/4 127/1/4 132/1/4
f 135/2/5 134/2/5 133/2/5
f 136/2/5 134/2/5 135/2/5
f 139/4/5 138/4/5 137/4/5
f 140/4/5 138/4/5 139/4/5
f 143/4/5 142/4/5 141/4/5
f 144/4/5 142/4/5 143/4/5
f 149/4/5 146/4/5 145/4/5
f 150/4/5 146/4/5 149/4/5
f 151/5/5 148/5/5 147/5/5
f 152/5/5 148/5/5 151/5/5
f 155/6/5 154/6/5 153/6/5
f 156/6/5 154/6/5 155/6/5
f 159/3/5 158/3/5 157/3/5
f 160/3/5 158/3/5 159/3/5
f 161/4/6 162/4/6 163/4/6
f 163/4/6 162/4/6 164/4/6
f 165/6/6 166/6/6 167/6/6
f 167/6/6 166/6/6 168/6/6
f 169/3/6 170/3/6 175/3/6
f 175/3/6 170/3/6 176/3/6
f 171/4/6 172/4/6 177/4/6
f 177/4/6 172/4/6 178/4/6
f 173/1/6 174/1/6 179/1/6
f 179/1/6 174/1/6 180/1/6
f 181/3/6 182/3/6 183/3/6
f 183/3/6 182/3/6 184/3/6
f 185/3/6 186/3/6 187/3/6
f 187/3/6 186/3/6 188/3/6
