# MagicaVoxel @ Ephtracy

# group
g Bone

# material
mtllib Bone.mtl
usemtl palette

# normals
vn -1 0 0
vn 1 0 0
vn 0 0 1
vn 0 0 -1
vn 0 -1 0
vn 0 1 0

# texcoords
vt 0.759766 0.5
vt 0.849609 0.5
vt 0.857422 0.5
vt 0.861328 0.5
vt 0.865234 0.5

# verts
v -1.5 0 5
v -1.5 0 4
v -1.5 0 -4
v -1.5 0 -5
v -1.5 1 6
v -1.5 1 5
v -1.5 1 4
v -1.5 1 3
v -1.5 1 -3
v -1.5 1 -4
v -1.5 1 -5
v -1.5 1 -6
v -1.5 2 6
v -1.5 2 5
v -1.5 2 4
v -1.5 2 3
v -1.5 2 -3
v -1.5 2 -4
v -1.5 2 -5
v -1.5 2 -6
v -1.5 3 -4
v -1.5 3 -5
v -0.5 0 6
v -0.5 0 5
v -0.5 0 4
v -0.5 0 3
v -0.5 0 -3
v -0.5 0 -4
v -0.5 0 -5
v -0.5 0 -6
v -0.5 1 6
v -0.5 1 5
v -0.5 1 4
v -0.5 1 3
v -0.5 1 2
v -0.5 1 1
v -0.5 1 -0
v -0.5 1 -1
v -0.5 1 -2
v -0.5 1 -3
v -0.5 1 -4
v -0.5 1 -5
v -0.5 1 -6
v -0.5 2 6
v -0.5 2 5
v -0.5 2 4
v -0.5 2 3
v -0.5 2 2
v -0.5 2 1
v -0.5 2 -0
v -0.5 2 -1
v -0.5 2 -2
v -0.5 2 -3
v -0.5 2 -4
v -0.5 2 -5
v -0.5 2 -6
v -0.5 3 6
v -0.5 3 5
v -0.5 3 4
v -0.5 3 3
v -0.5 3 -3
v -0.5 3 -4
v -0.5 3 -5
v -0.5 3 -6
v 0.5 0 6
v 0.5 0 5
v 0.5 0 4
v 0.5 0 3
v 0.5 0 -3
v 0.5 0 -4
v 0.5 0 -5
v 0.5 0 -6
v 0.5 1 6
v 0.5 1 5
v 0.5 1 4
v 0.5 1 3
v 0.5 1 2
v 0.5 1 1
v 0.5 1 -0
v 0.5 1 -1
v 0.5 1 -2
v 0.5 1 -3
v 0.5 1 -4
v 0.5 1 -5
v 0.5 1 -6
v 0.5 2 6
v 0.5 2 5
v 0.5 2 4
v 0.5 2 3
v 0.5 2 2
v 0.5 2 1
v 0.5 2 -0
v 0.5 2 -1
v 0.5 2 -2
v 0.5 2 -3
v 0.5 2 -4
v 0.5 2 -5
v 0.5 2 -6
v 0.5 3 6
v 0.5 3 5
v 0.5 3 4
v 0.5 3 3
v 0.5 3 -3
v 0.5 3 -4
v 0.5 3 -5
v 0.5 3 -6
v 1.5 0 5
v 1.5 0 4
v 1.5 0 -4
v 1.5 0 -5
v 1.5 1 6
v 1.5 1 5
v 1.5 1 4
v 1.5 1 3
v 1.5 1 -3
v 1.5 1 -4
v 1.5 1 -5
v 1.5 1 -6
v 1.5 2 6
v 1.5 2 5
v 1.5 2 4
v 1.5 2 3
v 1.5 2 -3
v 1.5 2 -4
v 1.5 2 -5
v 1.5 2 -6
v 1.5 3 5
v 1.5 3 4
v -1.5 1 6
v -1.5 2 6
v -0.5 0 6
v -0.5 1 6
v -0.5 2 6
v -0.5 3 6
v 0.5 0 6
v 0.5 1 6
v 0.5 2 6
v 0.5 3 6
v 1.5 1 6
v 1.5 2 6
v -1.5 0 5
v -1.5 1 5
v -0.5 0 5
v -0.5 1 5
v 0.5 0 5
v 0.5 1 5
v 0.5 2 5
v 0.5 3 5
v 1.5 0 5
v 1.5 1 5
v 1.5 2 5
v 1.5 3 5
v -1.5 1 -3
v -1.5 2 -3
v -0.5 0 -3
v -0.5 1 -3
v -0.5 2 -3
v -0.5 3 -3
v 0.5 0 -3
v 0.5 1 -3
v 0.5 2 -3
v 0.5 3 -3
v 1.5 1 -3
v 1.5 2 -3
v -1.5 0 -4
v -1.5 1 -4
v -1.5 2 -4
v -1.5 3 -4
v -0.5 0 -4
v -0.5 1 -4
v -0.5 2 -4
v -0.5 3 -4
v 0.5 0 -4
v 0.5 1 -4
v 1.5 0 -4
v 1.5 1 -4
v -1.5 0 4
v -1.5 1 4
v -0.5 0 4
v -0.5 1 4
v 0.5 0 4
v 0.5 1 4
v 0.5 2 4
v 0.5 3 4
v 1.5 0 4
v 1.5 1 4
v 1.5 2 4
v 1.5 3 4
v -1.5 1 3
v -1.5 2 3
v -0.5 0 3
v -0.5 1 3
v -0.5 2 3
v -0.5 3 3
v 0.5 0 3
v 0.5 1 3
v 0.5 2 3
v 0.5 3 3
v 1.5 1 3
v 1.5 2 3
v -1.5 0 -5
v -1.5 1 -5
v -1.5 2 -5
v -1.5 3 -5
v -0.5 0 -5
v -0.5 1 -5
v -0.5 2 -5
v -0.5 3 -5
v 0.5 0 -5
v 0.5 1 -5
v 1.5 0 -5
v 1.5 1 -5
v -1.5 1 -6
v -1.5 2 -6
v -0.5 0 -6
v -0.5 1 -6
v -0.5 2 -6
v -0.5 3 -6
v 0.5 0 -6
v 0.5 1 -6
v 0.5 2 -6
v 0.5 3 -6
v 1.5 1 -6
v 1.5 2 -6
v -0.5 0 6
v 0.5 0 6
v -1.5 0 5
v -0.5 0 5
v 0.5 0 5
v 1.5 0 5
v -1.5 0 4
v -0.5 0 4
v 0.5 0 4
v 1.5 0 4
v -0.5 0 3
v 0.5 0 3
v -0.5 0 -3
v 0.5 0 -3
v -1.5 0 -4
v -0.5 0 -4
v 0.5 0 -4
v 1.5 0 -4
v -1.5 0 -5
v -0.5 0 -5
v 0.5 0 -5
v 1.5 0 -5
v -0.5 0 -6
v 0.5 0 -6
v -1.5 1 6
v -0.5 1 6
v 0.5 1 6
v 1.5 1 6
v -1.5 1 5
v -0.5 1 5
v 0.5 1 5
v 1.5 1 5
v -1.5 1 4
v -0.5 1 4
v 0.5 1 4
v 1.5 1 4
v -1.5 1 3
v -0.5 1 3
v 0.5 1 3
v 1.5 1 3
v -0.5 1 2
v 0.5 1 2
v -0.5 1 1
v 0.5 1 1
v -0.5 1 -0
v 0.5 1 -0
v -0.5 1 -1
v 0.5 1 -1
v -0.5 1 -2
v 0.5 1 -2
v -1.5 1 -3
v -0.5 1 -3
v 0.5 1 -3
v 1.5 1 -3
v -1.5 1 -4
v -0.5 1 -4
v 0.5 1 -4
v 1.5 1 -4
v -1.5 1 -5
v -0.5 1 -5
v 0.5 1 -5
v 1.5 1 -5
v -1.5 1 -6
v -0.5 1 -6
v 0.5 1 -6
v 1.5 1 -6
v -1.5 2 6
v -0.5 2 6
v 0.5 2 6
v 1.5 2 6
v -1.5 2 5
v -0.5 2 5
v 0.5 2 5
v 1.5 2 5
v -1.5 2 4
v -0.5 2 4
v 0.5 2 4
v 1.5 2 4
v -1.5 2 3
v -0.5 2 3
v 0.5 2 3
v 1.5 2 3
v -0.5 2 2
v 0.5 2 2
v -0.5 2 1
v 0.5 2 1
v -0.5 2 -0
v 0.5 2 -0
v -0.5 2 -1
v 0.5 2 -1
v -0.5 2 -2
v 0.5 2 -2
v -1.5 2 -3
v -0.5 2 -3
v 0.5 2 -3
v 1.5 2 -3
v -1.5 2 -4
v -0.5 2 -4
v 0.5 2 -4
v 1.5 2 -4
v -1.5 2 -5
v -0.5 2 -5
v 0.5 2 -5
v 1.5 2 -5
v -1.5 2 -6
v -0.5 2 -6
v 0.5 2 -6
v 1.5 2 -6
v -0.5 3 6
v 0.5 3 6
v -0.5 3 5
v 0.5 3 5
v 1.5 3 5
v -0.5 3 4
v 0.5 3 4
v 1.5 3 4
v -0.5 3 3
v 0.5 3 3
v -0.5 3 -3
v 0.5 3 -3
v -1.5 3 -4
v -0.5 3 -4
v 0.5 3 -4
v -1.5 3 -5
v -0.5 3 -5
v 0.5 3 -5
v -0.5 3 -6
v 0.5 3 -6

# faces
f 6/3/1 2/3/1 1/3/1
f 7/3/1 2/3/1 6/3/1
f 10/4/1 4/4/1 3/4/1
f 11/4/1 4/4/1 10/4/1
f 13/4/1 6/4/1 5/4/1
f 14/3/1 7/3/1 6/3/1
f 14/4/1 6/4/1 13/4/1
f 15/4/1 8/4/1 7/4/1
f 15/3/1 7/3/1 14/3/1
f 16/4/1 8/4/1 15/4/1
f 17/5/1 10/5/1 9/5/1
f 18/4/1 11/4/1 10/4/1
f 18/5/1 10/5/1 17/5/1
f 19/3/1 12/3/1 11/3/1
f 19/4/1 11/4/1 18/4/1
f 20/3/1 12/3/1 19/3/1
f 21/3/1 19/3/1 18/3/1
f 22/3/1 19/3/1 21/3/1
f 31/5/1 24/5/1 23/5/1
f 32/5/1 24/5/1 31/5/1
f 33/4/1 26/4/1 25/4/1
f 34/4/1 26/4/1 33/4/1
f 40/3/1 28/3/1 27/3/1
f 41/3/1 28/3/1 40/3/1
f 42/3/1 30/3/1 29/3/1
f 43/3/1 30/3/1 42/3/1
f 47/3/1 35/3/1 34/3/1
f 48/4/1 36/4/1 35/4/1
f 48/3/1 35/3/1 47/3/1
f 49/3/1 37/3/1 36/3/1
f 49/4/1 36/4/1 48/4/1
f 50/5/1 38/5/1 37/5/1
f 50/3/1 37/3/1 49/3/1
f 51/4/1 39/4/1 38/4/1
f 51/5/1 38/5/1 50/5/1
f 52/3/1 40/3/1 39/3/1
f 52/4/1 39/4/1 51/4/1
f 53/3/1 40/3/1 52/3/1
f 57/3/1 45/3/1 44/3/1
f 58/4/1 46/4/1 45/4/1
f 58/3/1 45/3/1 57/3/1
f 59/5/1 47/5/1 46/5/1
f 59/4/1 46/4/1 58/4/1
f 60/5/1 47/5/1 59/5/1
f 61/3/1 54/3/1 53/3/1
f 62/3/1 54/3/1 61/3/1
f 63/4/1 56/4/1 55/4/1
f 64/4/1 56/4/1 63/4/1
f 65/5/2 66/5/2 73/5/2
f 73/5/2 66/5/2 74/5/2
f 67/4/2 68/4/2 75/4/2
f 75/4/2 68/4/2 76/4/2
f 69/3/2 70/3/2 82/3/2
f 82/3/2 70/3/2 83/3/2
f 71/3/2 72/3/2 84/3/2
f 84/3/2 72/3/2 85/3/2
f 76/3/2 77/3/2 89/3/2
f 77/4/2 78/4/2 90/4/2
f 89/3/2 77/3/2 90/3/2
f 78/3/2 79/3/2 91/3/2
f 90/4/2 78/4/2 91/4/2
f 79/5/2 80/5/2 92/5/2
f 91/3/2 79/3/2 92/3/2
f 80/4/2 81/4/2 93/4/2
f 92/5/2 80/5/2 93/5/2
f 81/3/2 82/3/2 94/3/2
f 93/4/2 81/4/2 94/4/2
f 94/3/2 82/3/2 95/3/2
f 86/3/2 87/3/2 99/3/2
f 99/3/2 87/3/2 100/3/2
f 88/5/2 89/5/2 101/5/2
f 101/5/2 89/5/2 102/5/2
f 95/3/2 96/3/2 103/3/2
f 96/5/2 97/5/2 104/5/2
f 103/3/2 96/3/2 104/3/2
f 97/4/2 98/4/2 105/4/2
f 104/5/2 97/5/2 105/5/2
f 105/4/2 98/4/2 106/4/2
f 107/4/2 108/4/2 112/4/2
f 112/4/2 108/4/2 113/4/2
f 109/4/2 110/4/2 116/4/2
f 116/4/2 110/4/2 117/4/2
f 111/5/2 112/5/2 119/5/2
f 112/3/2 113/3/2 120/3/2
f 119/5/2 112/5/2 120/5/2
f 113/4/2 114/4/2 121/4/2
f 120/3/2 113/3/2 121/3/2
f 121/4/2 114/4/2 122/4/2
f 115/4/2 116/4/2 123/4/2
f 116/3/2 117/3/2 124/3/2
f 123/4/2 116/4/2 124/4/2
f 117/5/2 118/5/2 125/5/2
f 124/3/2 117/3/2 125/3/2
f 125/5/2 118/5/2 126/5/2
f 120/3/2 121/3/2 127/3/2
f 127/3/2 121/3/2 128/3/2
f 132/4/3 130/4/3 129/4/3
f 133/4/3 130/4/3 132/4/3
f 135/5/3 132/5/3 131/5/3
f 136/4/3 133/4/3 132/4/3
f 136/5/3 132/5/3 135/5/3
f 137/3/3 134/3/3 133/3/3
f 137/4/3 133/4/3 136/4/3
f 138/3/3 134/3/3 137/3/3
f 139/5/3 137/5/3 136/5/3
f 140/5/3 137/5/3 139/5/3
f 143/3/3 142/3/3 141/3/3
f 144/3/3 142/3/3 143/3/3
f 149/4/3 146/4/3 145/4/3
f 150/4/3 146/4/3 149/4/3
f 151/3/3 148/3/3 147/3/3
f 152/3/3 148/3/3 151/3/3
f 156/5/3 154/5/3 153/5/3
f 157/5/3 154/5/3 156/5/3
f 159/3/3 156/3/3 155/3/3
f 160/3/3 156/3/3 159/3/3
f 161/3/3 158/3/3 157/3/3
f 162/3/3 158/3/3 161/3/3
f 163/4/3 161/4/3 160/4/3
f 164/4/3 161/4/3 163/4/3
f 169/4/3 166/4/3 165/4/3
f 170/4/3 166/4/3 169/4/3
f 171/3/3 168/3/3 167/3/3
f 172/3/3 168/3/3 171/3/3
f 175/4/3 174/4/3 173/4/3
f 176/4/3 174/4/3 175/4/3
f 177/3/4 178/3/4 179/3/4
f 179/3/4 178/3/4 180/3/4
f 181/4/4 182/4/4 185/4/4
f 185/4/4 182/4/4 186/4/4
f 183/3/4 184/3/4 187/3/4
f 187/3/4 184/3/4 188/3/4
f 189/4/4 190/4/4 192/4/4
f 192/4/4 190/4/4 193/4/4
f 191/4/4 192/4/4 195/4/4
f 195/4/4 192/4/4 196/4/4
f 193/5/4 194/5/4 197/5/4
f 197/5/4 194/5/4 198/5/4
f 196/4/4 197/4/4 199/4/4
f 199/4/4 197/4/4 200/4/4
f 201/4/4 202/4/4 205/4/4
f 205/4/4 202/4/4 206/4/4
f 203/3/4 204/3/4 207/3/4
f 207/3/4 204/3/4 208/3/4
f 209/4/4 210/4/4 211/4/4
f 211/4/4 210/4/4 212/4/4
f 213/3/4 214/3/4 216/3/4
f 216/3/4 214/3/4 217/3/4
f 215/3/4 216/3/4 219/3/4
f 217/4/4 218/4/4 220/4/4
f 219/3/4 216/3/4 220/3/4
f 216/4/4 217/4/4 220/4/4
f 220/4/4 218/4/4 221/4/4
f 221/4/4 218/4/4 222/4/4
f 220/5/4 221/5/4 223/5/4
f 223/5/4 221/5/4 224/5/4
f 228/5/5 226/5/5 225/5/5
f 229/5/5 226/5/5 228/5/5
f 231/3/5 228/3/5 227/3/5
f 231/3/5 229/3/5 228/3/5
f 232/3/5 229/3/5 231/3/5
f 233/4/5 230/4/5 229/4/5
f 233/3/5 229/3/5 232/3/5
f 234/4/5 230/4/5 233/4/5
f 235/4/5 233/4/5 232/4/5
f 236/4/5 233/4/5 235/4/5
f 240/3/5 238/3/5 237/3/5
f 241/3/5 238/3/5 240/3/5
f 243/4/5 240/4/5 239/4/5
f 244/3/5 241/3/5 240/3/5
f 244/4/5 240/4/5 243/4/5
f 245/4/5 242/4/5 241/4/5
f 245/3/5 241/3/5 244/3/5
f 246/4/5 242/4/5 245/4/5
f 247/3/5 245/3/5 244/3/5
f 248/3/5 245/3/5 247/3/5
f 253/4/5 250/4/5 249/4/5
f 254/4/5 250/4/5 253/4/5
f 255/5/5 252/5/5 251/5/5
f 256/5/5 252/5/5 255/5/5
f 261/4/5 258/4/5 257/4/5
f 262/4/5 258/4/5 261/4/5
f 263/4/5 260/4/5 259/4/5
f 264/4/5 260/4/5 263/4/5
f 265/3/5 263/3/5 262/3/5
f 266/3/5 263/3/5 265/3/5
f 267/4/5 266/4/5 265/4/5
f 268/4/5 266/4/5 267/4/5
f 269/3/5 268/3/5 267/3/5
f 270/3/5 268/3/5 269/3/5
f 271/5/5 270/5/5 269/5/5
f 272/5/5 270/5/5 271/5/5
f 273/4/5 272/4/5 271/4/5
f 274/4/5 272/4/5 273/4/5
f 276/3/5 274/3/5 273/3/5
f 277/3/5 274/3/5 276/3/5
f 279/5/5 276/5/5 275/5/5
f 280/5/5 276/5/5 279/5/5
f 281/4/5 278/4/5 277/4/5
f 282/4/5 278/4/5 281/4/5
f 287/3/5 284/3/5 283/3/5
f 288/3/5 284/3/5 287/3/5
f 289/5/5 286/5/5 285/5/5
f 290/5/5 286/5/5 289/5/5
f 291/4/6 292/4/6 295/4/6
f 295/4/6 292/4/6 296/4/6
f 293/5/6 294/5/6 297/5/6
f 297/5/6 294/5/6 298/5/6
f 295/3/6 296/3/6 299/3/6
f 299/3/6 296/3/6 300/3/6
f 299/4/6 300/4/6 303/4/6
f 303/4/6 300/4/6 304/4/6
f 301/4/6 302/4/6 305/4/6
f 305/4/6 302/4/6 306/4/6
f 304/3/6 305/3/6 307/3/6
f 307/3/6 305/3/6 308/3/6
f 307/4/6 308/4/6 309/4/6
f 309/4/6 308/4/6 310/4/6
f 309/3/6 310/3/6 311/3/6
f 311/3/6 310/3/6 312/3/6
f 311/5/6 312/5/6 313/5/6
f 313/5/6 312/5/6 314/5/6
f 313/4/6 314/4/6 315/4/6
f 315/4/6 314/4/6 316/4/6
f 315/3/6 316/3/6 318/3/6
f 318/3/6 316/3/6 319/3/6
f 317/5/6 318/5/6 321/5/6
f 321/5/6 318/5/6 322/5/6
f 319/4/6 320/4/6 323/4/6
f 323/4/6 320/4/6 324/4/6
f 323/3/6 324/3/6 327/3/6
f 327/3/6 324/3/6 328/3/6
f 325/3/6 326/3/6 329/3/6
f 329/3/6 326/3/6 330/3/6
f 327/5/6 328/5/6 331/5/6
f 331/5/6 328/5/6 332/5/6
f 333/3/6 334/3/6 335/3/6
f 335/3/6 334/3/6 336/3/6
f 335/4/6 336/4/6 338/4/6
f 336/3/6 337/3/6 339/3/6
f 338/4/6 336/4/6 339/4/6
f 339/3/6 337/3/6 340/3/6
f 338/5/6 339/5/6 341/5/6
f 341/5/6 339/5/6 342/5/6
f 343/3/6 344/3/6 346/3/6
f 346/3/6 344/3/6 347/3/6
f 345/3/6 346/3/6 348/3/6
f 346/5/6 347/5/6 349/5/6
f 348/3/6 346/3/6 349/3/6
f 349/5/6 347/5/6 350/5/6
f 349/4/6 350/4/6 351/4/6
f 351/4/6 350/4/6 352/4/6
