# MagicaVoxel @ Ephtracy

# group
g Scroll

# material
mtllib Scroll.mtl
usemtl palette

# normals
vn -1 0 0
vn 1 0 0
vn 0 0 1
vn 0 0 -1
vn 0 -1 0
vn 0 1 0

# texcoords
vt 0.970703 0.5
vt 0.974609 0.5
vt 0.978516 0.5
vt 0.982422 0.5
vt 0.986328 0.5

# verts
v -3.5 0 1.5
v -3.5 0 0.5
v -3.5 1 2.5
v -3.5 1 1.5
v -3.5 1 0.5
v -3.5 1 -0.5
v -3.5 2 2.5
v -3.5 2 1.5
v -3.5 10 0.5
v -3.5 10 -0.5
v -3.5 10 -1.5
v -3.5 11 -0.5
v -3.5 11 -1.5
v 3.5 0 1.5
v 3.5 0 0.5
v 3.5 1 2.5
v 3.5 1 1.5
v 3.5 1 0.5
v 3.5 1 -0.5
v 3.5 2 2.5
v 3.5 2 1.5
v 3.5 2 0.5
v 3.5 2 -0.5
v 3.5 5 0.5
v 3.5 5 -0.5
v 3.5 10 0.5
v 3.5 10 -0.5
v 3.5 10 -1.5
v 3.5 11 -0.5
v 3.5 11 -1.5
v -3.5 1 2.5
v -3.5 2 2.5
v 3.5 1 2.5
v 3.5 2 2.5
v -3.5 0 1.5
v -3.5 1 1.5
v 3.5 0 1.5
v 3.5 1 1.5
v -3.5 1 0.5
v -3.5 10 0.5
v -2.5 3 0.5
v -2.5 4 0.5
v -2.5 7 0.5
v -2.5 8 0.5
v -2.5 9 0.5
v -2.5 10 0.5
v -1.5 2 0.5
v -1.5 3 0.5
v -1.5 5 0.5
v -1.5 6 0.5
v 0.5 7 0.5
v 0.5 8 0.5
v 1.5 8 0.5
v 1.5 9 0.5
v 2.5 3 0.5
v 2.5 4 0.5
v 2.5 5 0.5
v 2.5 6 0.5
v 2.5 8 0.5
v 3.5 1 0.5
v 3.5 2 0.5
v 3.5 5 0.5
v 3.5 10 0.5
v -3.5 10 -0.5
v -3.5 11 -0.5
v -2.5 10 -0.5
v 3.5 10 -0.5
v 3.5 11 -0.5
v -3.5 1 1.5
v -3.5 2 1.5
v 3.5 1 1.5
v 3.5 2 1.5
v -3.5 0 0.5
v -3.5 1 0.5
v 3.5 0 0.5
v 3.5 1 0.5
v -3.5 1 -0.5
v -3.5 10 -0.5
v -2.5 3 -0.5
v -2.5 4 -0.5
v -2.5 7 -0.5
v -2.5 8 -0.5
v -2.5 9 -0.5
v -2.5 10 -0.5
v -1.5 2 -0.5
v -1.5 3 -0.5
v -1.5 5 -0.5
v -1.5 6 -0.5
v 0.5 7 -0.5
v 0.5 8 -0.5
v 1.5 8 -0.5
v 1.5 9 -0.5
v 2.5 3 -0.5
v 2.5 4 -0.5
v 2.5 5 -0.5
v 2.5 6 -0.5
v 2.5 8 -0.5
v 3.5 1 -0.5
v 3.5 2 -0.5
v 3.5 5 -0.5
v 3.5 10 -0.5
v -3.5 10 -1.5
v -3.5 11 -1.5
v 3.5 10 -1.5
v 3.5 11 -1.5
v -3.5 0 1.5
v 3.5 0 1.5
v -3.5 0 0.5
v 3.5 0 0.5
v -3.5 1 2.5
v 3.5 1 2.5
v -3.5 1 1.5
v 3.5 1 1.5
v -3.5 1 0.5
v 3.5 1 0.5
v -3.5 1 -0.5
v 3.5 1 -0.5
v -3.5 10 -0.5
v -2.5 10 -0.5
v 3.5 10 -0.5
v -3.5 10 -1.5
v 3.5 10 -1.5
v -3.5 1 1.5
v 3.5 1 1.5
v -3.5 1 0.5
v 3.5 1 0.5
v -3.5 2 2.5
v 3.5 2 2.5
v -3.5 2 1.5
v 3.5 2 1.5
v -3.5 10 0.5
v -2.5 10 0.5
v 3.5 10 0.5
v -3.5 10 -0.5
v -2.5 10 -0.5
v 3.5 10 -0.5
v -3.5 11 -0.5
v 3.5 11 -0.5
v -3.5 11 -1.5
v 3.5 11 -1.5

# faces
f 4/3/1 2/3/1 1/3/1
f 5/3/1 2/3/1 4/3/1
f 7/3/1 4/3/1 3/3/1
f 8/3/1 4/3/1 7/3/1
f 9/5/1 6/5/1 5/5/1
f 10/5/1 6/5/1 9/5/1
f 12/1/1 11/1/1 10/1/1
f 13/1/1 11/1/1 12/1/1
f 14/3/2 15/3/2 17/3/2
f 17/3/2 15/3/2 18/3/2
f 16/3/2 17/3/2 20/3/2
f 20/3/2 17/3/2 21/3/2
f 18/5/2 19/5/2 22/5/2
f 22/5/2 19/5/2 23/5/2
f 22/2/2 23/2/2 24/2/2
f 24/2/2 23/2/2 25/2/2
f 24/1/2 25/1/2 26/1/2
f 26/1/2 25/1/2 27/1/2
f 27/1/2 28/1/2 29/1/2
f 29/1/2 28/1/2 30/1/2
f 33/3/3 32/3/3 31/3/3
f 34/3/3 32/3/3 33/3/3
f 37/3/3 36/3/3 35/3/3
f 38/3/3 36/3/3 37/3/3
f 41/5/3 40/5/3 39/5/3
f 42/5/3 40/5/3 41/5/3
f 43/5/3 40/5/3 42/5/3
f 44/5/3 40/5/3 43/5/3
f 45/5/3 40/5/3 44/5/3
f 46/5/3 40/5/3 45/5/3
f 47/5/3 41/5/3 39/5/3
f 48/4/3 42/4/3 41/4/3
f 48/5/3 41/5/3 47/5/3
f 49/2/3 43/2/3 42/2/3
f 50/2/3 43/2/3 49/2/3
f 51/4/3 44/4/3 43/4/3
f 51/2/3 43/2/3 50/2/3
f 52/2/3 45/2/3 44/2/3
f 52/4/3 44/4/3 51/4/3
f 53/2/3 52/2/3 51/2/3
f 53/2/3 45/2/3 52/2/3
f 54/1/3 46/1/3 45/1/3
f 54/2/3 45/2/3 53/2/3
f 55/4/3 42/4/3 48/4/3
f 55/2/3 48/2/3 47/2/3
f 56/2/3 49/2/3 42/2/3
f 56/4/3 42/4/3 55/4/3
f 57/4/3 50/4/3 49/4/3
f 57/2/3 49/2/3 56/2/3
f 58/2/3 51/2/3 50/2/3
f 58/4/3 50/4/3 57/4/3
f 58/2/3 53/2/3 51/2/3
f 59/1/3 54/1/3 53/1/3
f 59/2/3 53/2/3 58/2/3
f 60/5/3 47/5/3 39/5/3
f 61/2/3 56/2/3 55/2/3
f 61/5/3 47/5/3 60/5/3
f 61/2/3 57/2/3 56/2/3
f 61/2/3 55/2/3 47/2/3
f 62/1/3 59/1/3 58/1/3
f 62/2/3 57/2/3 61/2/3
f 62/1/3 58/1/3 57/1/3
f 63/1/3 54/1/3 59/1/3
f 63/1/3 59/1/3 62/1/3
f 63/1/3 46/1/3 54/1/3
f 66/1/3 65/1/3 64/1/3
f 67/1/3 65/1/3 66/1/3
f 68/1/3 65/1/3 67/1/3
f 69/3/4 70/3/4 71/3/4
f 71/3/4 70/3/4 72/3/4
f 73/3/4 74/3/4 75/3/4
f 75/3/4 74/3/4 76/3/4
f 77/5/4 78/5/4 79/5/4
f 79/5/4 78/5/4 80/5/4
f 80/5/4 78/5/4 81/5/4
f 81/5/4 78/5/4 82/5/4
f 82/5/4 78/5/4 83/5/4
f 83/5/4 78/5/4 84/5/4
f 77/5/4 79/5/4 85/5/4
f 79/4/4 80/4/4 86/4/4
f 85/5/4 79/5/4 86/5/4
f 80/2/4 81/2/4 87/2/4
f 87/2/4 81/2/4 88/2/4
f 81/4/4 82/4/4 89/4/4
f 88/2/4 81/2/4 89/2/4
f 82/2/4 83/2/4 90/2/4
f 89/4/4 82/4/4 90/4/4
f 89/2/4 90/2/4 91/2/4
f 90/2/4 83/2/4 91/2/4
f 83/1/4 84/1/4 92/1/4
f 91/2/4 83/2/4 92/2/4
f 86/4/4 80/4/4 93/4/4
f 85/2/4 86/2/4 93/2/4
f 80/2/4 87/2/4 94/2/4
f 93/4/4 80/4/4 94/4/4
f 87/4/4 88/4/4 95/4/4
f 94/2/4 87/2/4 95/2/4
f 88/2/4 89/2/4 96/2/4
f 95/4/4 88/4/4 96/4/4
f 89/2/4 91/2/4 96/2/4
f 91/1/4 92/1/4 97/1/4
f 96/2/4 91/2/4 97/2/4
f 77/5/4 85/5/4 98/5/4
f 93/2/4 94/2/4 99/2/4
f 98/5/4 85/5/4 99/5/4
f 94/2/4 95/2/4 99/2/4
f 85/2/4 93/2/4 99/2/4
f 96/1/4 97/1/4 100/1/4
f 99/2/4 95/2/4 100/2/4
f 95/1/4 96/1/4 100/1/4
f 97/1/4 92/1/4 101/1/4
f 100/1/4 97/1/4 101/1/4
f 92/1/4 84/1/4 101/1/4
f 102/1/4 103/1/4 104/1/4
f 104/1/4 103/1/4 105/1/4
f 108/3/5 107/3/5 106/3/5
f 109/3/5 107/3/5 108/3/5
f 112/3/5 111/3/5 110/3/5
f 113/3/5 111/3/5 112/3/5
f 116/5/5 115/5/5 114/5/5
f 117/5/5 115/5/5 116/5/5
f 121/1/5 119/1/5 118/1/5
f 121/1/5 120/1/5 119/1/5
f 122/1/5 120/1/5 121/1/5
f 123/3/6 124/3/6 125/3/6
f 125/3/6 124/3/6 126/3/6
f 127/3/6 128/3/6 129/3/6
f 129/3/6 128/3/6 130/3/6
f 131/5/6 132/5/6 134/5/6
f 132/1/6 133/1/6 135/1/6
f 134/5/6 132/5/6 135/5/6
f 135/1/6 133/1/6 136/1/6
f 137/1/6 138/1/6 139/1/6
f 139/1/6 138/1/6 140/1/6
