# MagicaVoxel @ Ephtracy

# group
g Wizarding Slipper

# material
mtllib Wizarding Slipper.mtl
usemtl palette

# normals
vn -1 0 0
vn 1 0 0
vn 0 0 1
vn 0 0 -1
vn 0 -1 0
vn 0 1 0

# texcoords
vt 0.337891 0.5
vt 0.341797 0.5
vt 0.369141 0.5
vt 0.373047 0.5

# verts
v -3.5 0 6.5
v -3.5 0 -6.5
v -3.5 1 6.5
v -3.5 1 5.5
v -3.5 1 4.5
v -3.5 1 2.5
v -3.5 1 -0.5
v -3.5 1 -6.5
v -3.5 2 5.5
v -3.5 2 4.5
v -3.5 2 2.5
v -3.5 2 -0.5
v -2.5 0 7.5
v -2.5 0 6.5
v -2.5 0 -6.5
v -2.5 0 -7.5
v -2.5 1 7.5
v -2.5 1 6.5
v -2.5 1 5.5
v -2.5 1 -6.5
v -2.5 1 -7.5
v -2.5 2 6.5
v -2.5 2 5.5
v -2.5 2 4.5
v -2.5 2 3.5
v -2.5 2 2.5
v -2.5 2 1.5
v -2.5 2 -0.5
v -2.5 3 5.5
v -2.5 3 4.5
v -2.5 3 3.5
v -2.5 3 2.5
v -2.5 3 1.5
v -2.5 3 -0.5
v -1.5 1 7.5
v -1.5 1 6.5
v -1.5 2 7.5
v -1.5 2 6.5
v -1.5 2 5.5
v -1.5 3 6.5
v -1.5 3 5.5
v -1.5 3 4.5
v -1.5 3 3.5
v -1.5 3 2.5
v -1.5 3 1.5
v -1.5 3 -0.5
v -1.5 4 5.5
v -1.5 4 3.5
v -1.5 4 1.5
v -1.5 4 -0.5
v 1.5 1 6.5
v 1.5 1 5.5
v 1.5 2 6.5
v 1.5 2 5.5
v 1.5 2 4.5
v 1.5 2 2.5
v 1.5 2 0.5
v 1.5 2 -0.5
v 1.5 3 5.5
v 1.5 3 4.5
v 1.5 3 2.5
v 1.5 3 1.5
v 1.5 3 0.5
v 1.5 3 -0.5
v 2.5 1 5.5
v 2.5 1 1.5
v 2.5 1 -0.5
v 2.5 2 5.5
v 2.5 2 4.5
v 2.5 2 2.5
v 2.5 2 1.5
v 2.5 2 0.5
v 2.5 2 -0.5
v -2.5 1 5.5
v -2.5 1 4.5
v -2.5 1 2.5
v -2.5 1 -0.5
v -2.5 2 5.5
v -2.5 2 4.5
v -2.5 2 3.5
v -2.5 2 2.5
v -2.5 2 1.5
v -2.5 2 -0.5
v -1.5 1 6.5
v -1.5 1 5.5
v -1.5 2 6.5
v -1.5 2 5.5
v -1.5 2 4.5
v -1.5 2 3.5
v -1.5 2 2.5
v -1.5 2 1.5
v -1.5 2 -0.5
v -1.5 3 5.5
v -1.5 3 4.5
v -1.5 3 3.5
v -1.5 3 2.5
v -1.5 3 1.5
v -1.5 3 -0.5
v 1.5 1 7.5
v 1.5 1 6.5
v 1.5 2 7.5
v 1.5 2 6.5
v 1.5 2 5.5
v 1.5 3 6.5
v 1.5 3 5.5
v 1.5 3 4.5
v 1.5 3 2.5
v 1.5 3 1.5
v 1.5 3 0.5
v 1.5 3 -0.5
v 1.5 4 5.5
v 1.5 4 1.5
v 1.5 4 -0.5
v 2.5 0 7.5
v 2.5 0 6.5
v 2.5 0 -6.5
v 2.5 0 -7.5
v 2.5 1 7.5
v 2.5 1 6.5
v 2.5 1 5.5
v 2.5 1 -6.5
v 2.5 1 -7.5
v 2.5 2 6.5
v 2.5 2 5.5
v 2.5 2 4.5
v 2.5 2 2.5
v 2.5 2 1.5
v 2.5 2 0.5
v 2.5 2 -0.5
v 2.5 3 5.5
v 2.5 3 4.5
v 2.5 3 2.5
v 2.5 3 0.5
v 2.5 3 -0.5
v 3.5 0 6.5
v 3.5 0 5.5
v 3.5 0 4.5
v 3.5 0 -5.5
v 3.5 0 -6.5
v 3.5 1 6.5
v 3.5 1 5.5
v 3.5 1 4.5
v 3.5 1 1.5
v 3.5 1 -0.5
v 3.5 1 -5.5
v 3.5 1 -6.5
v 3.5 2 5.5
v 3.5 2 1.5
v 3.5 2 -0.5
v -2.5 0 7.5
v -2.5 1 7.5
v -1.5 1 7.5
v -1.5 2 7.5
v 0.5 1 7.5
v 0.5 2 7.5
v 1.5 1 7.5
v 1.5 2 7.5
v 2.5 0 7.5
v 2.5 1 7.5
v -3.5 0 6.5
v -3.5 1 6.5
v -2.5 0 6.5
v -2.5 1 6.5
v -2.5 2 6.5
v -1.5 1 6.5
v -1.5 2 6.5
v -1.5 3 6.5
v -0.5 2 6.5
v -0.5 3 6.5
v 0.5 2 6.5
v 0.5 3 6.5
v 1.5 1 6.5
v 1.5 2 6.5
v 1.5 3 6.5
v 2.5 0 6.5
v 2.5 1 6.5
v 2.5 2 6.5
v 3.5 0 6.5
v 3.5 1 6.5
v -3.5 1 5.5
v -3.5 2 5.5
v -2.5 1 5.5
v -2.5 2 5.5
v -2.5 3 5.5
v -1.5 2 5.5
v -1.5 3 5.5
v -1.5 4 5.5
v -0.5 3 5.5
v -0.5 4 5.5
v 0.5 3 5.5
v 0.5 4 5.5
v 1.5 2 5.5
v 1.5 3 5.5
v 1.5 4 5.5
v 2.5 1 5.5
v 2.5 2 5.5
v 2.5 3 5.5
v 3.5 1 5.5
v 3.5 2 5.5
v -1.5 1 6.5
v -1.5 2 6.5
v -0.5 2 6.5
v 0.5 1 6.5
v 0.5 2 6.5
v 1.5 1 6.5
v 1.5 2 6.5
v -2.5 1 5.5
v -2.5 2 5.5
v -1.5 1 5.5
v -1.5 2 5.5
v -1.5 3 5.5
v -0.5 2 5.5
v -0.5 3 5.5
v 0.5 2 5.5
v 0.5 3 5.5
v 1.5 1 5.5
v 1.5 2 5.5
v 1.5 3 5.5
v 2.5 1 5.5
v 2.5 2 5.5
v -3.5 1 -0.5
v -3.5 2 -0.5
v -2.5 1 -0.5
v -2.5 2 -0.5
v -2.5 3 -0.5
v -1.5 2 -0.5
v -1.5 3 -0.5
v -1.5 4 -0.5
v 0.5 3 -0.5
v 0.5 4 -0.5
v 1.5 2 -0.5
v 1.5 3 -0.5
v 1.5 4 -0.5
v 2.5 1 -0.5
v 2.5 2 -0.5
v 2.5 3 -0.5
v 3.5 1 -0.5
v 3.5 2 -0.5
v -3.5 0 -6.5
v -3.5 1 -6.5
v -2.5 0 -6.5
v -2.5 1 -6.5
v 2.5 0 -6.5
v 2.5 1 -6.5
v 3.5 0 -6.5
v 3.5 1 -6.5
v -2.5 0 -7.5
v -2.5 1 -7.5
v 1.5 0 -7.5
v 1.5 1 -7.5
v 2.5 0 -7.5
v 2.5 1 -7.5
v -2.5 0 7.5
v 2.5 0 7.5
v -3.5 0 6.5
v -2.5 0 6.5
v -1.5 0 6.5
v 0.5 0 6.5
v 2.5 0 6.5
v 3.5 0 6.5
v -0.5 0 5.5
v 0.5 0 5.5
v 1.5 0 5.5
v 2.5 0 5.5
v 3.5 0 5.5
v -1.5 0 4.5
v -0.5 0 4.5
v 0.5 0 4.5
v 2.5 0 4.5
v 3.5 0 4.5
v -0.5 0 1.5
v 0.5 0 1.5
v -0.5 0 0.5
v 0.5 0 0.5
v -1.5 0 -0.5
v -0.5 0 -0.5
v 0.5 0 -0.5
v -2.5 0 -1.5
v -1.5 0 -1.5
v 0.5 0 -1.5
v 1.5 0 -1.5
v -1.5 0 -2.5
v -0.5 0 -2.5
v 1.5 0 -2.5
v 2.5 0 -2.5
v 0.5 0 -3.5
v 1.5 0 -3.5
v -1.5 0 -4.5
v 0.5 0 -4.5
v -1.5 0 -5.5
v 0.5 0 -5.5
v 2.5 0 -5.5
v 3.5 0 -5.5
v -3.5 0 -6.5
v -2.5 0 -6.5
v -1.5 0 -6.5
v 0.5 0 -6.5
v 1.5 0 -6.5
v 2.5 0 -6.5
v 3.5 0 -6.5
v -2.5 0 -7.5
v 1.5 0 -7.5
v 2.5 0 -7.5
v -1.5 2 6.5
v -0.5 2 6.5
v 0.5 2 6.5
v 1.5 2 6.5
v -2.5 2 5.5
v -1.5 2 5.5
v -0.5 2 5.5
v 0.5 2 5.5
v 1.5 2 5.5
v 2.5 2 5.5
v -2.5 2 4.5
v -1.5 2 4.5
v 1.5 2 4.5
v 2.5 2 4.5
v -2.5 2 3.5
v -1.5 2 3.5
v -2.5 2 2.5
v -1.5 2 2.5
v 1.5 2 2.5
v 2.5 2 2.5
v -2.5 2 1.5
v -1.5 2 1.5
v 2.5 2 1.5
v 1.5 2 0.5
v 2.5 2 0.5
v -2.5 2 -0.5
v -1.5 2 -0.5
v 1.5 2 -0.5
v 2.5 2 -0.5
v -1.5 3 5.5
v -0.5 3 5.5
v 0.5 3 5.5
v 1.5 3 5.5
v -1.5 3 4.5
v 1.5 3 4.5
v -1.5 3 3.5
v -0.5 3 3.5
v -1.5 3 2.5
v -0.5 3 2.5
v 0.5 3 2.5
v 1.5 3 2.5
v -1.5 3 1.5
v -0.5 3 1.5
v 1.5 3 1.5
v -0.5 3 0.5
v 0.5 3 0.5
v 1.5 3 0.5
v -1.5 3 -0.5
v 0.5 3 -0.5
v 1.5 3 -0.5
v -2.5 1 7.5
v -1.5 1 7.5
v 1.5 1 7.5
v 2.5 1 7.5
v -3.5 1 6.5
v -2.5 1 6.5
v -1.5 1 6.5
v 0.5 1 6.5
v 1.5 1 6.5
v 2.5 1 6.5
v 3.5 1 6.5
v -3.5 1 5.5
v -2.5 1 5.5
v -1.5 1 5.5
v -0.5 1 5.5
v 0.5 1 5.5
v 1.5 1 5.5
v 2.5 1 5.5
v 3.5 1 5.5
v -2.5 1 4.5
v -1.5 1 4.5
v -0.5 1 4.5
v 0.5 1 4.5
v -2.5 1 2.5
v -0.5 1 1.5
v 0.5 1 1.5
v 2.5 1 1.5
v -0.5 1 0.5
v 0.5 1 0.5
v -3.5 1 -0.5
v -2.5 1 -0.5
v -1.5 1 -0.5
v -0.5 1 -0.5
v 0.5 1 -0.5
v 2.5 1 -0.5
v 3.5 1 -0.5
v -2.5 1 -1.5
v -1.5 1 -1.5
v 0.5 1 -1.5
v 1.5 1 -1.5
v -1.5 1 -2.5
v -0.5 1 -2.5
v 1.5 1 -2.5
v 2.5 1 -2.5
v 0.5 1 -3.5
v 1.5 1 -3.5
v -1.5 1 -4.5
v 0.5 1 -4.5
v -1.5 1 -5.5
v 0.5 1 -5.5
v 2.5 1 -5.5
v 3.5 1 -5.5
v -3.5 1 -6.5
v -2.5 1 -6.5
v -1.5 1 -6.5
v 0.5 1 -6.5
v 1.5 1 -6.5
v 2.5 1 -6.5
v 3.5 1 -6.5
v -2.5 1 -7.5
v 1.5 1 -7.5
v 2.5 1 -7.5
v -1.5 2 7.5
v 0.5 2 7.5
v 1.5 2 7.5
v -2.5 2 6.5
v -1.5 2 6.5
v -0.5 2 6.5
v 0.5 2 6.5
v 1.5 2 6.5
v 2.5 2 6.5
v -3.5 2 5.5
v -2.5 2 5.5
v -1.5 2 5.5
v 1.5 2 5.5
v 2.5 2 5.5
v 3.5 2 5.5
v -3.5 2 4.5
v -2.5 2 4.5
v 2.5 2 4.5
v -2.5 2 3.5
v -3.5 2 2.5
v -2.5 2 2.5
v 2.5 2 2.5
v -2.5 2 1.5
v 2.5 2 1.5
v 3.5 2 1.5
v 2.5 2 0.5
v -3.5 2 -0.5
v -2.5 2 -0.5
v 2.5 2 -0.5
v 3.5 2 -0.5
v -1.5 3 6.5
v -0.5 3 6.5
v 0.5 3 6.5
v 1.5 3 6.5
v -2.5 3 5.5
v -1.5 3 5.5
v -0.5 3 5.5
v 0.5 3 5.5
v 1.5 3 5.5
v 2.5 3 5.5
v -2.5 3 4.5
v -1.5 3 4.5
v 1.5 3 4.5
v 2.5 3 4.5
v -2.5 3 3.5
v -1.5 3 3.5
v -2.5 3 2.5
v -1.5 3 2.5
v 1.5 3 2.5
v 2.5 3 2.5
v -2.5 3 1.5
v -1.5 3 1.5
v 1.5 3 1.5
v 1.5 3 0.5
v 2.5 3 0.5
v -2.5 3 -0.5
v -1.5 3 -0.5
v 1.5 3 -0.5
v 2.5 3 -0.5
v -1.5 4 5.5
v -0.5 4 5.5
v 0.5 4 5.5
v 1.5 4 5.5
v -1.5 4 3.5
v -0.5 4 3.5
v -0.5 4 2.5
v 0.5 4 2.5
v -1.5 4 1.5
v -0.5 4 1.5
v 1.5 4 1.5
v -0.5 4 0.5
v 0.5 4 0.5
v -1.5 4 -0.5
v 0.5 4 -0.5
v 1.5 4 -0.5

# faces
f 3/3/1 2/3/1 1/3/1
f 4/3/1 2/3/1 3/3/1
f 5/3/1 2/3/1 4/3/1
f 6/3/1 2/3/1 5/3/1
f 7/3/1 2/3/1 6/3/1
f 8/3/1 2/3/1 7/3/1
f 9/2/1 5/2/1 4/2/1
f 10/1/1 6/1/1 5/1/1
f 10/2/1 5/2/1 9/2/1
f 11/2/1 7/2/1 6/2/1
f 11/1/1 6/1/1 10/1/1
f 12/2/1 7/2/1 11/2/1
f 17/3/1 14/3/1 13/3/1
f 18/3/1 14/3/1 17/3/1
f 20/3/1 16/3/1 15/3/1
f 21/3/1 16/3/1 20/3/1
f 22/2/1 19/2/1 18/2/1
f 23/2/1 19/2/1 22/2/1
f 29/2/1 24/2/1 23/2/1
f 30/1/1 25/1/1 24/1/1
f 30/2/1 24/2/1 29/2/1
f 31/2/1 26/2/1 25/2/1
f 31/1/1 25/1/1 30/1/1
f 32/1/1 27/1/1 26/1/1
f 32/2/1 26/2/1 31/2/1
f 33/2/1 28/2/1 27/2/1
f 33/1/1 27/1/1 32/1/1
f 34/2/1 28/2/1 33/2/1
f 37/1/1 36/1/1 35/1/1
f 38/1/1 36/1/1 37/1/1
f 40/1/1 39/1/1 38/1/1
f 41/1/1 39/1/1 40/1/1
f 47/2/1 42/2/1 41/2/1
f 47/2/1 43/2/1 42/2/1
f 48/1/1 45/1/1 44/1/1
f 48/2/1 43/2/1 47/2/1
f 48/1/1 44/1/1 43/1/1
f 49/2/1 46/2/1 45/2/1
f 49/1/1 45/1/1 48/1/1
f 50/2/1 46/2/1 49/2/1
f 53/2/1 52/2/1 51/2/1
f 54/2/1 52/2/1 53/2/1
f 59/1/1 55/1/1 54/1/1
f 60/2/1 56/2/1 55/2/1
f 60/1/1 55/1/1 59/1/1
f 61/1/1 57/1/1 56/1/1
f 61/2/1 56/2/1 60/2/1
f 62/1/1 57/1/1 61/1/1
f 63/2/1 58/2/1 57/2/1
f 63/1/1 57/1/1 62/1/1
f 64/2/1 58/2/1 63/2/1
f 68/1/1 66/1/1 65/1/1
f 69/1/1 66/1/1 68/1/1
f 70/1/1 66/1/1 69/1/1
f 71/2/1 67/2/1 66/2/1
f 71/1/1 66/1/1 70/1/1
f 72/2/1 67/2/1 71/2/1
f 73/2/1 67/2/1 72/2/1
f 74/2/2 75/2/2 78/2/2
f 75/1/2 76/1/2 79/1/2
f 78/2/2 75/2/2 79/2/2
f 79/1/2 76/1/2 80/1/2
f 76/2/2 77/2/2 81/2/2
f 80/1/2 76/1/2 81/1/2
f 81/2/2 77/2/2 82/2/2
f 82/2/2 77/2/2 83/2/2
f 84/2/2 85/2/2 86/2/2
f 86/2/2 85/2/2 87/2/2
f 87/2/2 88/2/2 93/2/2
f 88/1/2 89/1/2 94/1/2
f 93/2/2 88/2/2 94/2/2
f 89/2/2 90/2/2 95/2/2
f 94/1/2 89/1/2 95/1/2
f 90/1/2 91/1/2 96/1/2
f 95/2/2 90/2/2 96/2/2
f 91/2/2 92/2/2 97/2/2
f 96/1/2 91/1/2 97/1/2
f 97/2/2 92/2/2 98/2/2
f 99/2/2 100/2/2 101/2/2
f 101/2/2 100/2/2 102/2/2
f 102/1/2 103/1/2 104/1/2
f 104/1/2 103/1/2 105/1/2
f 105/2/2 106/2/2 111/2/2
f 106/2/2 107/2/2 111/2/2
f 107/2/2 108/2/2 111/2/2
f 109/1/2 110/1/2 112/1/2
f 111/2/2 108/2/2 112/2/2
f 108/1/2 109/1/2 112/1/2
f 112/1/2 110/1/2 113/1/2
f 114/3/2 115/3/2 118/3/2
f 118/3/2 115/3/2 119/3/2
f 116/4/2 117/4/2 121/4/2
f 121/4/2 117/4/2 122/4/2
f 119/2/2 120/2/2 123/2/2
f 123/2/2 120/2/2 124/2/2
f 124/1/2 125/1/2 130/1/2
f 125/2/2 126/2/2 131/2/2
f 130/1/2 125/1/2 131/1/2
f 127/1/2 128/1/2 132/1/2
f 131/2/2 126/2/2 132/2/2
f 126/1/2 127/1/2 132/1/2
f 128/2/2 129/2/2 133/2/2
f 132/1/2 128/1/2 133/1/2
f 133/2/2 129/2/2 134/2/2
f 135/3/2 136/3/2 140/3/2
f 136/4/2 137/4/2 141/4/2
f 140/3/2 136/3/2 141/3/2
f 137/3/2 138/3/2 142/3/2
f 141/4/2 137/4/2 142/4/2
f 142/3/2 138/3/2 143/3/2
f 143/3/2 138/3/2 144/3/2
f 138/4/2 139/4/2 145/4/2
f 144/3/2 138/3/2 145/3/2
f 145/4/2 139/4/2 146/4/2
f 141/1/2 142/1/2 147/1/2
f 142/1/2 143/1/2 147/1/2
f 143/2/2 144/2/2 148/2/2
f 147/1/2 143/1/2 148/1/2
f 148/2/2 144/2/2 149/2/2
f 152/3/3 151/3/3 150/3/3
f 154/3/3 152/3/3 150/3/3
f 154/1/3 153/1/3 152/1/3
f 155/1/3 153/1/3 154/1/3
f 156/3/3 154/3/3 150/3/3
f 156/2/3 155/2/3 154/2/3
f 157/2/3 155/2/3 156/2/3
f 158/3/3 156/3/3 150/3/3
f 159/3/3 156/3/3 158/3/3
f 162/3/3 161/3/3 160/3/3
f 163/3/3 161/3/3 162/3/3
f 165/2/3 164/2/3 163/2/3
f 166/2/3 164/2/3 165/2/3
f 168/1/3 167/1/3 166/1/3
f 169/1/3 167/1/3 168/1/3
f 170/2/3 169/2/3 168/2/3
f 171/2/3 169/2/3 170/2/3
f 173/1/3 171/1/3 170/1/3
f 174/1/3 171/1/3 173/1/3
f 176/2/3 173/2/3 172/2/3
f 177/2/3 173/2/3 176/2/3
f 178/3/3 176/3/3 175/3/3
f 179/3/3 176/3/3 178/3/3
f 182/2/3 181/2/3 180/2/3
f 183/2/3 181/2/3 182/2/3
f 185/2/3 184/2/3 183/2/3
f 186/2/3 184/2/3 185/2/3
f 188/2/3 187/2/3 186/2/3
f 189/2/3 187/2/3 188/2/3
f 190/1/3 189/1/3 188/1/3
f 191/1/3 189/1/3 190/1/3
f 193/2/3 191/2/3 190/2/3
f 194/2/3 191/2/3 193/2/3
f 196/1/3 193/1/3 192/1/3
f 197/1/3 193/1/3 196/1/3
f 198/1/3 196/1/3 195/1/3
f 199/1/3 196/1/3 198/1/3
f 200/1/4 201/1/4 202/1/4
f 200/1/4 202/1/4 203/1/4
f 203/1/4 202/1/4 204/1/4
f 203/2/4 204/2/4 205/2/4
f 205/2/4 204/2/4 206/2/4
f 207/2/4 208/2/4 209/2/4
f 209/2/4 208/2/4 210/2/4
f 210/1/4 211/1/4 212/1/4
f 212/1/4 211/1/4 213/1/4
f 212/2/4 213/2/4 214/2/4
f 214/2/4 213/2/4 215/2/4
f 214/1/4 215/1/4 217/1/4
f 217/1/4 215/1/4 218/1/4
f 216/2/4 217/2/4 219/2/4
f 219/2/4 217/2/4 220/2/4
f 221/2/4 222/2/4 223/2/4
f 223/2/4 222/2/4 224/2/4
f 224/2/4 225/2/4 226/2/4
f 226/2/4 225/2/4 227/2/4
f 227/2/4 228/2/4 229/2/4
f 229/2/4 228/2/4 230/2/4
f 229/1/4 230/1/4 232/1/4
f 232/1/4 230/1/4 233/1/4
f 231/2/4 232/2/4 235/2/4
f 235/2/4 232/2/4 236/2/4
f 234/2/4 235/2/4 237/2/4
f 237/2/4 235/2/4 238/2/4
f 239/3/4 240/3/4 241/3/4
f 241/3/4 240/3/4 242/3/4
f 243/4/4 244/4/4 245/4/4
f 245/4/4 244/4/4 246/4/4
f 247/3/4 248/3/4 249/3/4
f 249/3/4 248/3/4 250/3/4
f 249/4/4 250/4/4 251/4/4
f 251/4/4 250/4/4 252/4/4
f 256/3/5 254/3/5 253/3/5
f 257/3/5 254/3/5 256/3/5
f 258/3/5 254/3/5 257/3/5
f 259/3/5 254/3/5 258/3/5
f 261/3/5 258/3/5 257/3/5
f 262/4/5 259/4/5 258/4/5
f 262/3/5 258/3/5 261/3/5
f 263/4/5 259/4/5 262/4/5
f 264/3/5 260/3/5 259/3/5
f 264/4/5 259/4/5 263/4/5
f 265/3/5 260/3/5 264/3/5
f 266/4/5 257/4/5 256/4/5
f 266/3/5 261/3/5 257/3/5
f 267/4/5 262/4/5 261/4/5
f 267/3/5 261/3/5 266/3/5
f 268/3/5 263/3/5 262/3/5
f 268/4/5 262/4/5 267/4/5
f 269/4/5 265/4/5 264/4/5
f 269/4/5 264/4/5 263/4/5
f 270/4/5 265/4/5 269/4/5
f 271/4/5 267/4/5 266/4/5
f 271/3/5 268/3/5 267/3/5
f 272/3/5 263/3/5 268/3/5
f 272/3/5 268/3/5 271/3/5
f 273/4/5 271/4/5 266/4/5
f 273/4/5 272/4/5 271/4/5
f 274/3/5 263/3/5 272/3/5
f 274/4/5 272/4/5 273/4/5
f 275/4/5 273/4/5 266/4/5
f 275/4/5 266/4/5 256/4/5
f 276/3/5 274/3/5 273/3/5
f 276/4/5 273/4/5 275/4/5
f 277/3/5 263/3/5 274/3/5
f 277/3/5 274/3/5 276/3/5
f 278/3/5 256/3/5 255/3/5
f 278/4/5 275/4/5 256/4/5
f 279/3/5 276/3/5 275/3/5
f 279/4/5 275/4/5 278/4/5
f 280/3/5 263/3/5 277/3/5
f 280/4/5 277/4/5 276/4/5
f 281/4/5 269/4/5 263/4/5
f 281/3/5 263/3/5 280/3/5
f 282/3/5 276/3/5 279/3/5
f 282/3/5 279/3/5 278/3/5
f 283/4/5 281/4/5 280/4/5
f 283/3/5 276/3/5 282/3/5
f 283/4/5 280/4/5 276/4/5
f 284/4/5 269/4/5 281/4/5
f 284/4/5 281/4/5 283/4/5
f 285/3/5 270/3/5 269/3/5
f 285/4/5 269/4/5 284/4/5
f 286/4/5 283/4/5 282/4/5
f 286/4/5 284/4/5 283/4/5
f 287/3/5 285/3/5 284/3/5
f 287/4/5 284/4/5 286/4/5
f 288/3/5 282/3/5 278/3/5
f 288/4/5 286/4/5 282/4/5
f 289/3/5 287/3/5 286/3/5
f 289/4/5 286/4/5 288/4/5
f 290/3/5 288/3/5 278/3/5
f 290/3/5 289/3/5 288/3/5
f 291/3/5 287/3/5 289/3/5
f 291/3/5 289/3/5 290/3/5
f 292/3/5 270/3/5 285/3/5
f 292/3/5 287/3/5 291/3/5
f 292/3/5 285/3/5 287/3/5
f 293/3/5 270/3/5 292/3/5
f 294/3/5 278/3/5 255/3/5
f 294/3/5 290/3/5 278/3/5
f 295/3/5 290/3/5 294/3/5
f 296/4/5 291/4/5 290/4/5
f 296/3/5 290/3/5 295/3/5
f 297/3/5 292/3/5 291/3/5
f 297/4/5 291/4/5 296/4/5
f 298/3/5 292/3/5 297/3/5
f 299/4/5 293/4/5 292/4/5
f 299/3/5 292/3/5 298/3/5
f 300/4/5 293/4/5 299/4/5
f 301/3/5 298/3/5 297/3/5
f 301/3/5 296/3/5 295/3/5
f 301/3/5 297/3/5 296/3/5
f 302/4/5 299/4/5 298/4/5
f 302/3/5 298/3/5 301/3/5
f 303/4/5 299/4/5 302/4/5
f 309/1/5 305/1/5 304/1/5
f 310/2/5 306/2/5 305/2/5
f 310/1/5 305/1/5 309/1/5
f 311/1/5 307/1/5 306/1/5
f 311/2/5 306/2/5 310/2/5
f 312/1/5 307/1/5 311/1/5
f 314/2/5 309/2/5 308/2/5
f 315/2/5 309/2/5 314/2/5
f 316/1/5 313/1/5 312/1/5
f 317/1/5 313/1/5 316/1/5
f 318/1/5 315/1/5 314/1/5
f 319/1/5 315/1/5 318/1/5
f 320/2/5 319/2/5 318/2/5
f 321/2/5 319/2/5 320/2/5
f 322/2/5 317/2/5 316/2/5
f 323/2/5 317/2/5 322/2/5
f 324/1/5 321/1/5 320/1/5
f 325/1/5 321/1/5 324/1/5
f 326/1/5 323/1/5 322/1/5
f 327/1/5 326/1/5 322/1/5
f 328/1/5 326/1/5 327/1/5
f 329/2/5 325/2/5 324/2/5
f 330/2/5 325/2/5 329/2/5
f 331/2/5 328/2/5 327/2/5
f 332/2/5 328/2/5 331/2/5
f 337/2/5 334/2/5 333/2/5
f 338/2/5 336/2/5 335/2/5
f 339/2/5 334/2/5 337/2/5
f 340/1/5 335/1/5 334/1/5
f 340/2/5 334/2/5 339/2/5
f 341/1/5 340/1/5 339/1/5
f 342/1/5 335/1/5 340/1/5
f 342/1/5 340/1/5 341/1/5
f 343/2/5 338/2/5 335/2/5
f 343/1/5 335/1/5 342/1/5
f 344/2/5 338/2/5 343/2/5
f 345/1/5 342/1/5 341/1/5
f 346/2/5 343/2/5 342/2/5
f 346/1/5 342/1/5 345/1/5
f 346/2/5 344/2/5 343/2/5
f 347/2/5 344/2/5 346/2/5
f 348/2/5 346/2/5 345/2/5
f 348/1/5 347/1/5 346/1/5
f 349/1/5 347/1/5 348/1/5
f 350/1/5 347/1/5 349/1/5
f 351/2/5 348/2/5 345/2/5
f 351/2/5 349/2/5 348/2/5
f 352/1/5 350/1/5 349/1/5
f 352/2/5 349/2/5 351/2/5
f 353/1/5 350/1/5 352/1/5
f 354/3/6 355/3/6 359/3/6
f 359/3/6 355/3/6 360/3/6
f 356/3/6 357/3/6 362/3/6
f 362/3/6 357/3/6 363/3/6
f 358/3/6 359/3/6 365/3/6
f 365/3/6 359/3/6 366/3/6
f 360/3/6 361/3/6 367/3/6
f 367/3/6 361/3/6 368/3/6
f 361/4/6 362/4/6 369/4/6
f 368/3/6 361/3/6 369/3/6
f 369/4/6 362/4/6 370/4/6
f 363/3/6 364/3/6 371/3/6
f 371/3/6 364/3/6 372/3/6
f 366/4/6 367/4/6 373/4/6
f 367/3/6 368/3/6 374/3/6
f 373/4/6 367/4/6 374/4/6
f 368/4/6 369/4/6 375/4/6
f 374/3/6 368/3/6 375/3/6
f 369/3/6 370/3/6 376/3/6
f 375/4/6 369/4/6 376/4/6
f 374/4/6 375/4/6 377/4/6
f 373/4/6 374/4/6 377/4/6
f 375/3/6 376/3/6 378/3/6
f 377/4/6 375/4/6 378/4/6
f 376/3/6 370/3/6 379/3/6
f 378/3/6 376/3/6 379/3/6
f 370/4/6 371/4/6 380/4/6
f 377/4/6 378/4/6 381/4/6
f 378/4/6 379/4/6 381/4/6
f 379/3/6 370/3/6 382/3/6
f 381/4/6 379/4/6 382/4/6
f 377/4/6 381/4/6 384/4/6
f 384/4/6 381/4/6 385/4/6
f 381/3/6 382/3/6 386/3/6
f 385/4/6 381/4/6 386/4/6
f 382/3/6 370/3/6 387/3/6
f 386/3/6 382/3/6 387/3/6
f 370/4/6 380/4/6 388/4/6
f 384/4/6 385/4/6 390/4/6
f 383/3/6 384/3/6 390/3/6
f 385/3/6 386/3/6 391/3/6
f 390/4/6 385/4/6 391/4/6
f 387/3/6 370/3/6 392/3/6
f 386/4/6 387/4/6 392/4/6
f 370/4/6 388/4/6 393/4/6
f 392/3/6 370/3/6 393/3/6
f 391/3/6 386/3/6 394/3/6
f 390/3/6 391/3/6 394/3/6
f 386/4/6 392/4/6 395/4/6
f 394/3/6 386/3/6 395/3/6
f 392/4/6 393/4/6 395/4/6
f 393/4/6 388/4/6 396/4/6
f 395/4/6 393/4/6 396/4/6
f 388/3/6 389/3/6 397/3/6
f 396/4/6 388/4/6 397/4/6
f 394/4/6 395/4/6 398/4/6
f 395/4/6 396/4/6 398/4/6
f 396/3/6 397/3/6 399/3/6
f 398/4/6 396/4/6 399/4/6
f 390/3/6 394/3/6 400/3/6
f 394/4/6 398/4/6 400/4/6
f 398/3/6 399/3/6 401/3/6
f 400/4/6 398/4/6 401/4/6
f 390/3/6 400/3/6 402/3/6
f 400/3/6 401/3/6 402/3/6
f 401/3/6 399/3/6 403/3/6
f 402/3/6 401/3/6 403/3/6
f 399/3/6 397/3/6 404/3/6
f 403/3/6 399/3/6 404/3/6
f 397/3/6 389/3/6 404/3/6
f 404/3/6 389/3/6 405/3/6
f 383/3/6 390/3/6 406/3/6
f 390/3/6 402/3/6 406/3/6
f 406/3/6 402/3/6 407/3/6
f 402/4/6 403/4/6 408/4/6
f 407/3/6 402/3/6 408/3/6
f 403/3/6 404/3/6 409/3/6
f 408/4/6 403/4/6 409/4/6
f 409/3/6 404/3/6 410/3/6
f 404/4/6 405/4/6 411/4/6
f 410/3/6 404/3/6 411/3/6
f 411/4/6 405/4/6 412/4/6
f 409/3/6 410/3/6 413/3/6
f 407/3/6 408/3/6 413/3/6
f 408/3/6 409/3/6 413/3/6
f 410/4/6 411/4/6 414/4/6
f 413/3/6 410/3/6 414/3/6
f 414/4/6 411/4/6 415/4/6
f 416/1/6 417/1/6 420/1/6
f 420/1/6 417/1/6 421/1/6
f 417/2/6 418/2/6 422/2/6
f 421/1/6 417/1/6 422/1/6
f 422/2/6 418/2/6 423/2/6
f 419/2/6 420/2/6 426/2/6
f 426/2/6 420/2/6 427/2/6
f 423/2/6 424/2/6 428/2/6
f 428/2/6 424/2/6 429/2/6
f 425/2/6 426/2/6 431/2/6
f 431/2/6 426/2/6 432/2/6
f 429/1/6 430/1/6 433/1/6
f 431/1/6 432/1/6 434/1/6
f 431/1/6 434/1/6 435/1/6
f 435/1/6 434/1/6 436/1/6
f 433/1/6 430/1/6 437/1/6
f 435/2/6 436/2/6 438/2/6
f 437/1/6 430/1/6 439/1/6
f 439/1/6 430/1/6 440/1/6
f 439/2/6 440/2/6 441/2/6
f 435/2/6 438/2/6 442/2/6
f 442/2/6 438/2/6 443/2/6
f 441/2/6 440/2/6 444/2/6
f 444/2/6 440/2/6 445/2/6
f 446/1/6 447/1/6 451/1/6
f 447/2/6 448/2/6 452/2/6
f 451/1/6 447/1/6 452/1/6
f 448/1/6 449/1/6 453/1/6
f 452/2/6 448/2/6 453/2/6
f 453/1/6 449/1/6 454/1/6
f 450/2/6 451/2/6 456/2/6
f 456/2/6 451/2/6 457/2/6
f 454/1/6 455/1/6 458/1/6
f 458/1/6 455/1/6 459/1/6
f 456/1/6 457/1/6 460/1/6
f 460/1/6 457/1/6 461/1/6
f 460/2/6 461/2/6 462/2/6
f 462/2/6 461/2/6 463/2/6
f 458/2/6 459/2/6 464/2/6
f 464/2/6 459/2/6 465/2/6
f 462/1/6 463/1/6 466/1/6
f 466/1/6 463/1/6 467/1/6
f 464/1/6 465/1/6 468/1/6
f 468/1/6 465/1/6 469/1/6
f 469/1/6 465/1/6 470/1/6
f 466/2/6 467/2/6 471/2/6
f 471/2/6 467/2/6 472/2/6
f 469/2/6 470/2/6 473/2/6
f 473/2/6 470/2/6 474/2/6
f 475/2/6 476/2/6 479/2/6
f 476/1/6 477/1/6 480/1/6
f 479/2/6 476/2/6 480/2/6
f 479/1/6 480/1/6 481/1/6
f 480/1/6 477/1/6 481/1/6
f 477/2/6 478/2/6 482/2/6
f 481/1/6 477/1/6 482/1/6
f 479/1/6 481/1/6 483/1/6
f 481/2/6 482/2/6 484/2/6
f 483/1/6 481/1/6 484/1/6
f 482/2/6 478/2/6 485/2/6
f 484/2/6 482/2/6 485/2/6
f 483/2/6 484/2/6 486/2/6
f 484/1/6 485/1/6 486/1/6
f 486/1/6 485/1/6 487/1/6
f 483/2/6 486/2/6 488/2/6
f 486/2/6 487/2/6 488/2/6
f 487/1/6 485/1/6 489/1/6
f 488/2/6 487/2/6 489/2/6
f 489/1/6 485/1/6 490/1/6
