# MagicaVoxel @ Ephtracy

# group
g Swiftness Boots

# material
mtllib Swiftness Boots.mtl
usemtl palette

# normals
vn -1 0 0
vn 1 0 0
vn 0 0 1
vn 0 0 -1
vn 0 -1 0
vn 0 1 0

# texcoords
vt 0.845703 0.5
vt 0.849609 0.5
vt 0.857422 0.5
vt 0.861328 0.5
vt 0.951172 0.5
vt 0.955078 0.5
vt 0.958984 0.5
vt 0.986328 0.5

# verts
v -3.5 3 -2
v -3.5 3 -3
v -3.5 4 -1
v -3.5 4 -2
v -3.5 4 -3
v -3.5 4 -4
v -3.5 5 -1
v -3.5 5 -2
v -3.5 5 -3
v -3.5 5 -4
v -3.5 5 -6
v -3.5 6 -2
v -3.5 6 -3
v -3.5 6 -5
v -3.5 6 -6
v -3.5 6 -7
v -3.5 7 -2
v -3.5 7 -3
v -3.5 7 -5
v -3.5 7 -7
v -3.5 8 -3
v -3.5 8 -7
v -2.5 0 6
v -2.5 0 -2
v -2.5 1 6
v -2.5 1 5
v -2.5 1 2
v -2.5 1 -2
v -2.5 2 6
v -2.5 2 5
v -2.5 2 2
v -2.5 2 1
v -2.5 2 -1
v -2.5 2 -2
v -2.5 3 5
v -2.5 3 3
v -2.5 3 2
v -2.5 3 -1
v -2.5 3 -2
v -2.5 3 -3
v -2.5 3 -4
v -2.5 4 3
v -2.5 4 2
v -2.5 4 1
v -2.5 4 -1
v -2.5 4 -2
v -2.5 4 -3
v -2.5 4 -4
v -2.5 5 -1
v -2.5 5 -2
v -2.5 6 2
v -2.5 6 -1
v -2.5 6 -2
v -1.5 0 7
v -1.5 0 6
v -1.5 1 7
v -1.5 1 6
v -1.5 2 7
v -1.5 2 6
v -1.5 2 5
v -1.5 3 6
v -1.5 3 5
v -1.5 4 3
v -1.5 4 2
v -1.5 5 3
v -1.5 5 2
v -1.5 6 3
v -1.5 6 2
v 1.5 1 3
v 1.5 1 2
v 1.5 1 -1
v 1.5 2 3
v 1.5 2 2
v 1.5 2 1
v 1.5 3 3
v 1.5 3 2
v 1.5 3 -2
v 1.5 3 -4
v 1.5 4 2
v 1.5 4 1
v 1.5 5 2
v 1.5 5 -2
v 1.5 5 -3
v 1.5 5 -4
v 1.5 5 -5
v 1.5 6 2
v 1.5 6 -1
v 1.5 6 -2
v 1.5 6 -3
v 1.5 6 -4
v 1.5 6 -5
v 1.5 7 -3
v 1.5 7 -4
v 2.5 5 -5
v 2.5 5 -6
v 2.5 6 -2
v 2.5 6 -3
v 2.5 6 -4
v 2.5 6 -5
v 2.5 6 -6
v 2.5 6 -7
v 2.5 7 -2
v 2.5 7 -3
v 2.5 7 -4
v 2.5 7 -5
v 2.5 7 -7
v 2.5 8 -3
v 2.5 8 -7
v -2.5 5 -5
v -2.5 5 -6
v -2.5 6 -2
v -2.5 6 -3
v -2.5 6 -4
v -2.5 6 -5
v -2.5 6 -6
v -2.5 6 -7
v -2.5 7 -2
v -2.5 7 -3
v -2.5 7 -4
v -2.5 7 -5
v -2.5 7 -7
v -2.5 8 -3
v -2.5 8 -7
v -1.5 1 3
v -1.5 1 2
v -1.5 1 -1
v -1.5 2 3
v -1.5 2 2
v -1.5 2 1
v -1.5 3 3
v -1.5 3 2
v -1.5 3 -2
v -1.5 3 -4
v -1.5 4 2
v -1.5 4 1
v -1.5 5 2
v -1.5 5 -2
v -1.5 5 -3
v -1.5 5 -4
v -1.5 5 -5
v -1.5 6 2
v -1.5 6 -1
v -1.5 6 -2
v -1.5 6 -3
v -1.5 6 -4
v -1.5 6 -5
v -1.5 7 -3
v -1.5 7 -4
v 1.5 0 7
v 1.5 0 6
v 1.5 1 7
v 1.5 1 6
v 1.5 2 7
v 1.5 2 6
v 1.5 2 5
v 1.5 3 6
v 1.5 3 5
v 1.5 4 3
v 1.5 4 2
v 1.5 5 3
v 1.5 5 2
v 1.5 6 3
v 1.5 6 2
v 2.5 0 6
v 2.5 0 -2
v 2.5 1 6
v 2.5 1 5
v 2.5 1 2
v 2.5 1 -2
v 2.5 2 6
v 2.5 2 5
v 2.5 2 2
v 2.5 2 1
v 2.5 2 -1
v 2.5 2 -2
v 2.5 3 5
v 2.5 3 3
v 2.5 3 2
v 2.5 3 -1
v 2.5 3 -2
v 2.5 3 -3
v 2.5 3 -4
v 2.5 4 3
v 2.5 4 2
v 2.5 4 1
v 2.5 4 -1
v 2.5 4 -2
v 2.5 4 -3
v 2.5 4 -4
v 2.5 5 -1
v 2.5 5 -2
v 2.5 6 2
v 2.5 6 -1
v 2.5 6 -2
v 3.5 3 -2
v 3.5 3 -3
v 3.5 4 -1
v 3.5 4 -2
v 3.5 4 -3
v 3.5 4 -4
v 3.5 5 -1
v 3.5 5 -2
v 3.5 5 -3
v 3.5 5 -4
v 3.5 5 -6
v 3.5 6 -2
v 3.5 6 -3
v 3.5 6 -5
v 3.5 6 -6
v 3.5 6 -7
v 3.5 7 -2
v 3.5 7 -3
v 3.5 7 -5
v 3.5 7 -7
v 3.5 8 -3
v 3.5 8 -7
v -1.5 0 7
v -1.5 1 7
v -1.5 2 7
v 1.5 0 7
v 1.5 1 7
v 1.5 2 7
v -2.5 0 6
v -2.5 1 6
v -2.5 2 6
v -1.5 0 6
v -1.5 1 6
v -1.5 2 6
v -1.5 3 6
v -0.5 2 6
v -0.5 3 6
v 0.5 2 6
v 0.5 3 6
v 1.5 0 6
v 1.5 1 6
v 1.5 2 6
v 1.5 3 6
v 2.5 0 6
v 2.5 1 6
v 2.5 2 6
v -2.5 2 5
v -2.5 3 5
v -1.5 2 5
v -1.5 3 5
v 1.5 2 5
v 1.5 3 5
v 2.5 2 5
v 2.5 3 5
v -2.5 3 3
v -2.5 4 3
v -1.5 4 3
v -1.5 5 3
v -1.5 6 3
v -0.5 3 3
v 0.5 3 3
v 1.5 4 3
v 1.5 5 3
v 1.5 6 3
v 2.5 3 3
v 2.5 4 3
v -2.5 4 2
v -2.5 6 2
v -1.5 4 2
v -1.5 5 2
v -1.5 6 2
v 1.5 4 2
v 1.5 5 2
v 1.5 6 2
v 2.5 4 2
v 2.5 6 2
v -3.5 4 -1
v -3.5 5 -1
v -2.5 4 -1
v -2.5 5 -1
v -1.5 1 -1
v -1.5 6 -1
v -0.5 4 -1
v -0.5 5 -1
v 0.5 4 -1
v 0.5 5 -1
v 1.5 1 -1
v 1.5 6 -1
v 2.5 4 -1
v 2.5 5 -1
v 3.5 4 -1
v 3.5 5 -1
v -3.5 3 -2
v -3.5 4 -2
v -3.5 5 -2
v -3.5 6 -2
v -3.5 7 -2
v -2.5 3 -2
v -2.5 4 -2
v -2.5 5 -2
v -2.5 6 -2
v -2.5 7 -2
v 2.5 3 -2
v 2.5 4 -2
v 2.5 5 -2
v 2.5 6 -2
v 2.5 7 -2
v 3.5 3 -2
v 3.5 4 -2
v 3.5 5 -2
v 3.5 6 -2
v 3.5 7 -2
v -3.5 7 -3
v -3.5 8 -3
v -2.5 6 -3
v -2.5 7 -3
v -2.5 8 -3
v -1.5 6 -3
v -1.5 7 -3
v 1.5 6 -3
v 1.5 7 -3
v 2.5 6 -3
v 2.5 7 -3
v 2.5 8 -3
v 3.5 7 -3
v 3.5 8 -3
v -1.5 1 3
v -1.5 2 3
v -1.5 3 3
v -0.5 2 3
v -0.5 3 3
v 0.5 2 3
v 0.5 3 3
v 1.5 1 3
v 1.5 2 3
v 1.5 3 3
v -1.5 3 2
v -1.5 4 2
v -1.5 5 2
v -1.5 6 2
v 1.5 3 2
v 1.5 4 2
v 1.5 5 2
v 1.5 6 2
v -2.5 0 -2
v -2.5 1 -2
v -2.5 2 -2
v -2.5 3 -2
v -1.5 1 -2
v -1.5 2 -2
v -1.5 3 -2
v -1.5 5 -2
v -1.5 6 -2
v -0.5 4 -2
v -0.5 5 -2
v 0.5 4 -2
v 0.5 5 -2
v 1.5 1 -2
v 1.5 2 -2
v 1.5 3 -2
v 1.5 5 -2
v 1.5 6 -2
v 2.5 0 -2
v 2.5 1 -2
v 2.5 2 -2
v 2.5 3 -2
v -3.5 3 -3
v -3.5 4 -3
v -2.5 3 -3
v -2.5 4 -3
v 2.5 3 -3
v 2.5 4 -3
v 3.5 3 -3
v 3.5 4 -3
v -3.5 4 -4
v -3.5 5 -4
v -2.5 3 -4
v -2.5 4 -4
v -2.5 5 -4
v -2.5 6 -4
v -2.5 7 -4
v -1.5 3 -4
v -1.5 5 -4
v -1.5 6 -4
v -1.5 7 -4
v 1.5 3 -4
v 1.5 5 -4
v 1.5 6 -4
v 1.5 7 -4
v 2.5 3 -4
v 2.5 4 -4
v 2.5 5 -4
v 2.5 6 -4
v 2.5 7 -4
v 3.5 4 -4
v 3.5 5 -4
v -2.5 5 -5
v -2.5 6 -5
v -1.5 5 -5
v -1.5 6 -5
v 1.5 5 -5
v 1.5 6 -5
v 2.5 5 -5
v 2.5 6 -5
v -3.5 5 -6
v -3.5 6 -6
v -2.5 5 -6
v -2.5 6 -6
v 2.5 5 -6
v 2.5 6 -6
v 3.5 5 -6
v 3.5 6 -6
v -3.5 6 -7
v -3.5 7 -7
v -3.5 8 -7
v -2.5 6 -7
v -2.5 7 -7
v -2.5 8 -7
v 2.5 6 -7
v 2.5 7 -7
v 2.5 8 -7
v 3.5 6 -7
v 3.5 7 -7
v 3.5 8 -7
v -1.5 0 7
v 1.5 0 7
v -2.5 0 6
v -1.5 0 6
v 1.5 0 6
v 2.5 0 6
v -2.5 0 -2
v 2.5 0 -2
v -1.5 3 3
v -0.5 3 3
v 0.5 3 3
v 1.5 3 3
v -1.5 3 2
v 1.5 3 2
v -3.5 3 -2
v -2.5 3 -2
v -1.5 3 -2
v 1.5 3 -2
v 2.5 3 -2
v 3.5 3 -2
v -3.5 3 -3
v -2.5 3 -3
v 2.5 3 -3
v 3.5 3 -3
v -2.5 3 -4
v -1.5 3 -4
v 1.5 3 -4
v 2.5 3 -4
v -3.5 4 -1
v -2.5 4 -1
v 2.5 4 -1
v 3.5 4 -1
v -3.5 4 -2
v -2.5 4 -2
v 2.5 4 -2
v 3.5 4 -2
v -3.5 4 -3
v -2.5 4 -3
v 2.5 4 -3
v 3.5 4 -3
v -3.5 4 -4
v -2.5 4 -4
v 2.5 4 -4
v 3.5 4 -4
v -3.5 5 -4
v -2.5 5 -4
v -1.5 5 -4
v 1.5 5 -4
v 2.5 5 -4
v 3.5 5 -4
v -2.5 5 -5
v -1.5 5 -5
v 1.5 5 -5
v 2.5 5 -5
v -3.5 5 -6
v -2.5 5 -6
v 2.5 5 -6
v 3.5 5 -6
v -3.5 6 -6
v -2.5 6 -6
v 2.5 6 -6
v 3.5 6 -6
v -3.5 6 -7
v -2.5 6 -7
v 2.5 6 -7
v 3.5 6 -7
v -1.5 1 3
v 1.5 1 3
v -1.5 1 2
v 1.5 1 2
v -1.5 1 -1
v 1.5 1 -1
v -1.5 2 7
v 1.5 2 7
v -2.5 2 6
v -1.5 2 6
v -0.5 2 6
v 0.5 2 6
v 1.5 2 6
v 2.5 2 6
v -2.5 2 5
v -1.5 2 5
v 1.5 2 5
v 2.5 2 5
v -1.5 3 6
v -0.5 3 6
v 0.5 3 6
v 1.5 3 6
v -2.5 3 5
v -1.5 3 5
v -0.5 3 5
v 0.5 3 5
v 1.5 3 5
v 2.5 3 5
v -2.5 3 3
v -0.5 3 3
v 0.5 3 3
v 2.5 3 3
v -2.5 4 3
v -1.5 4 3
v 1.5 4 3
v 2.5 4 3
v -2.5 4 2
v -1.5 4 2
v 1.5 4 2
v 2.5 4 2
v -3.5 5 -1
v -2.5 5 -1
v 2.5 5 -1
v 3.5 5 -1
v -3.5 5 -2
v -2.5 5 -2
v 2.5 5 -2
v 3.5 5 -2
v -1.5 6 3
v 1.5 6 3
v -2.5 6 2
v -1.5 6 2
v 1.5 6 2
v 2.5 6 2
v -2.5 6 -1
v -1.5 6 -1
v 1.5 6 -1
v 2.5 6 -1
v -2.5 6 -2
v -1.5 6 -2
v 1.5 6 -2
v 2.5 6 -2
v -2.5 6 -3
v -1.5 6 -3
v 1.5 6 -3
v 2.5 6 -3
v -2.5 6 -4
v -1.5 6 -4
v 1.5 6 -4
v 2.5 6 -4
v -2.5 6 -5
v -1.5 6 -5
v 1.5 6 -5
v 2.5 6 -5
v -3.5 7 -2
v -2.5 7 -2
v 2.5 7 -2
v 3.5 7 -2
v -3.5 7 -3
v -2.5 7 -3
v -1.5 7 -3
v 1.5 7 -3
v 2.5 7 -3
v 3.5 7 -3
v -2.5 7 -4
v -1.5 7 -4
v 1.5 7 -4
v 2.5 7 -4
v -3.5 8 -3
v -2.5 8 -3
v 2.5 8 -3
v 3.5 8 -3
v -3.5 8 -7
v -2.5 8 -7
v 2.5 8 -7
v 3.5 8 -7

# faces
f 4/1/1 2/1/1 1/1/1
f 5/1/1 2/1/1 4/1/1
f 7/3/1 4/3/1 3/3/1
f 8/1/1 6/1/1 5/1/1
f 8/3/1 4/3/1 7/3/1
f 8/1/1 5/1/1 4/1/1
f 9/1/1 6/1/1 8/1/1
f 10/1/1 6/1/1 9/1/1
f 12/3/1 9/3/1 8/3/1
f 13/1/1 11/1/1 10/1/1
f 13/3/1 9/3/1 12/3/1
f 13/1/1 10/1/1 9/1/1
f 14/1/1 11/1/1 13/1/1
f 15/1/1 11/1/1 14/1/1
f 17/2/1 13/2/1 12/2/1
f 18/3/1 14/3/1 13/3/1
f 18/2/1 13/2/1 17/2/1
f 19/1/1 16/1/1 15/1/1
f 19/3/1 14/3/1 18/3/1
f 19/1/1 15/1/1 14/1/1
f 20/1/1 16/1/1 19/1/1
f 21/2/1 19/2/1 18/2/1
f 21/2/1 20/2/1 19/2/1
f 22/2/1 20/2/1 21/2/1
f 25/6/1 24/6/1 23/6/1
f 26/6/1 24/6/1 25/6/1
f 27/6/1 24/6/1 26/6/1
f 28/6/1 24/6/1 27/6/1
f 29/5/1 26/5/1 25/5/1
f 30/7/1 27/7/1 26/7/1
f 30/5/1 26/5/1 29/5/1
f 31/5/1 28/5/1 27/5/1
f 31/7/1 27/7/1 30/7/1
f 32/5/1 28/5/1 31/5/1
f 33/5/1 28/5/1 32/5/1
f 34/5/1 28/5/1 33/5/1
f 35/5/1 31/5/1 30/5/1
f 36/5/1 31/5/1 35/5/1
f 37/7/1 32/7/1 31/7/1
f 37/5/1 31/5/1 36/5/1
f 38/4/1 34/4/1 33/4/1
f 38/5/1 33/5/1 32/5/1
f 39/4/1 34/4/1 38/4/1
f 42/7/1 37/7/1 36/7/1
f 43/7/1 32/7/1 37/7/1
f 43/7/1 37/7/1 42/7/1
f 44/5/1 38/5/1 32/5/1
f 44/7/1 32/7/1 43/7/1
f 45/1/1 39/1/1 38/1/1
f 45/5/1 38/5/1 44/5/1
f 46/1/1 39/1/1 45/1/1
f 47/4/1 41/4/1 40/4/1
f 48/4/1 41/4/1 47/4/1
f 49/5/1 44/5/1 43/5/1
f 49/5/1 45/5/1 44/5/1
f 51/5/1 49/5/1 43/5/1
f 52/2/1 50/2/1 49/2/1
f 52/5/1 49/5/1 51/5/1
f 53/2/1 50/2/1 52/2/1
f 56/6/1 55/6/1 54/6/1
f 57/6/1 55/6/1 56/6/1
f 58/5/1 57/5/1 56/5/1
f 59/5/1 57/5/1 58/5/1
f 61/7/1 60/7/1 59/7/1
f 62/7/1 60/7/1 61/7/1
f 65/7/1 64/7/1 63/7/1
f 66/7/1 64/7/1 65/7/1
f 67/5/1 66/5/1 65/5/1
f 68/5/1 66/5/1 67/5/1
f 72/7/1 70/7/1 69/7/1
f 73/5/1 71/5/1 70/5/1
f 73/7/1 70/7/1 72/7/1
f 74/5/1 71/5/1 73/5/1
f 75/5/1 73/5/1 72/5/1
f 76/7/1 74/7/1 73/7/1
f 76/5/1 73/5/1 75/5/1
f 79/7/1 74/7/1 76/7/1
f 80/5/1 71/5/1 74/5/1
f 80/7/1 74/7/1 79/7/1
f 81/5/1 80/5/1 79/5/1
f 82/4/1 78/4/1 77/4/1
f 83/4/1 78/4/1 82/4/1
f 84/4/1 78/4/1 83/4/1
f 86/5/1 80/5/1 81/5/1
f 87/5/1 71/5/1 80/5/1
f 87/5/1 80/5/1 86/5/1
f 88/2/1 83/2/1 82/2/1
f 89/3/1 85/3/1 84/3/1
f 89/2/1 83/2/1 88/2/1
f 89/3/1 84/3/1 83/3/1
f 90/3/1 85/3/1 89/3/1
f 91/3/1 85/3/1 90/3/1
f 92/2/1 90/2/1 89/2/1
f 93/2/1 90/2/1 92/2/1
f 99/1/1 95/1/1 94/1/1
f 100/1/1 95/1/1 99/1/1
f 102/2/1 97/2/1 96/2/1
f 103/2/1 97/2/1 102/2/1
f 104/3/1 99/3/1 98/3/1
f 105/1/1 101/1/1 100/1/1
f 105/1/1 100/1/1 99/1/1
f 105/3/1 99/3/1 104/3/1
f 106/1/1 101/1/1 105/1/1
f 107/2/1 104/2/1 103/2/1
f 107/2/1 106/2/1 105/2/1
f 107/2/1 105/2/1 104/2/1
f 108/2/1 106/2/1 107/2/1
f 109/1/2 110/1/2 114/1/2
f 114/1/2 110/1/2 115/1/2
f 111/2/2 112/2/2 117/2/2
f 117/2/2 112/2/2 118/2/2
f 113/3/2 114/3/2 119/3/2
f 115/1/2 116/1/2 120/1/2
f 114/1/2 115/1/2 120/1/2
f 119/3/2 114/3/2 120/3/2
f 120/1/2 116/1/2 121/1/2
f 118/2/2 119/2/2 122/2/2
f 120/2/2 121/2/2 122/2/2
f 119/2/2 120/2/2 122/2/2
f 122/2/2 121/2/2 123/2/2
f 124/7/2 125/7/2 127/7/2
f 125/5/2 126/5/2 128/5/2
f 127/7/2 125/7/2 128/7/2
f 128/5/2 126/5/2 129/5/2
f 127/5/2 128/5/2 130/5/2
f 128/7/2 129/7/2 131/7/2
f 130/5/2 128/5/2 131/5/2
f 131/7/2 129/7/2 134/7/2
f 129/5/2 126/5/2 135/5/2
f 134/7/2 129/7/2 135/7/2
f 134/5/2 135/5/2 136/5/2
f 132/4/2 133/4/2 137/4/2
f 137/4/2 133/4/2 138/4/2
f 138/4/2 133/4/2 139/4/2
f 136/5/2 135/5/2 141/5/2
f 135/5/2 126/5/2 142/5/2
f 141/5/2 135/5/2 142/5/2
f 137/2/2 138/2/2 143/2/2
f 139/3/2 140/3/2 144/3/2
f 143/2/2 138/2/2 144/2/2
f 138/3/2 139/3/2 144/3/2
f 144/3/2 140/3/2 145/3/2
f 145/3/2 140/3/2 146/3/2
f 144/2/2 145/2/2 147/2/2
f 147/2/2 145/2/2 148/2/2
f 149/6/2 150/6/2 151/6/2
f 151/6/2 150/6/2 152/6/2
f 151/5/2 152/5/2 153/5/2
f 153/5/2 152/5/2 154/5/2
f 154/7/2 155/7/2 156/7/2
f 156/7/2 155/7/2 157/7/2
f 158/7/2 159/7/2 160/7/2
f 160/7/2 159/7/2 161/7/2
f 160/5/2 161/5/2 162/5/2
f 162/5/2 161/5/2 163/5/2
f 164/6/2 165/6/2 166/6/2
f 166/6/2 165/6/2 167/6/2
f 167/6/2 165/6/2 168/6/2
f 168/6/2 165/6/2 169/6/2
f 166/5/2 167/5/2 170/5/2
f 167/7/2 168/7/2 171/7/2
f 170/5/2 167/5/2 171/5/2
f 168/5/2 169/5/2 172/5/2
f 171/7/2 168/7/2 172/7/2
f 172/5/2 169/5/2 173/5/2
f 173/5/2 169/5/2 174/5/2
f 174/5/2 169/5/2 175/5/2
f 171/5/2 172/5/2 176/5/2
f 176/5/2 172/5/2 177/5/2
f 172/7/2 173/7/2 178/7/2
f 177/5/2 172/5/2 178/5/2
f 174/4/2 175/4/2 179/4/2
f 173/5/2 174/5/2 179/5/2
f 179/4/2 175/4/2 180/4/2
f 177/7/2 178/7/2 183/7/2
f 178/7/2 173/7/2 184/7/2
f 183/7/2 178/7/2 184/7/2
f 173/5/2 179/5/2 185/5/2
f 184/7/2 173/7/2 185/7/2
f 179/1/2 180/1/2 186/1/2
f 185/5/2 179/5/2 186/5/2
f 186/1/2 180/1/2 187/1/2
f 181/4/2 182/4/2 188/4/2
f 188/4/2 182/4/2 189/4/2
f 184/5/2 185/5/2 190/5/2
f 185/5/2 186/5/2 190/5/2
f 184/5/2 190/5/2 192/5/2
f 190/2/2 191/2/2 193/2/2
f 192/5/2 190/5/2 193/5/2
f 193/2/2 191/2/2 194/2/2
f 195/1/2 196/1/2 198/1/2
f 198/1/2 196/1/2 199/1/2
f 197/3/2 198/3/2 201/3/2
f 199/1/2 200/1/2 202/1/2
f 201/3/2 198/3/2 202/3/2
f 198/1/2 199/1/2 202/1/2
f 202/1/2 200/1/2 203/1/2
f 203/1/2 200/1/2 204/1/2
f 202/3/2 203/3/2 206/3/2
f 204/1/2 205/1/2 207/1/2
f 206/3/2 203/3/2 207/3/2
f 203/1/2 204/1/2 207/1/2
f 207/1/2 205/1/2 208/1/2
f 208/1/2 205/1/2 209/1/2
f 206/2/2 207/2/2 211/2/2
f 207/3/2 208/3/2 212/3/2
f 211/2/2 207/2/2 212/2/2
f 209/1/2 210/1/2 213/1/2
f 212/3/2 208/3/2 213/3/2
f 208/1/2 209/1/2 213/1/2
f 213/1/2 210/1/2 214/1/2
f 212/2/2 213/2/2 215/2/2
f 213/2/2 214/2/2 215/2/2
f 215/2/2 214/2/2 216/2/2
f 220/6/3 218/6/3 217/6/3
f 221/5/3 219/5/3 218/5/3
f 221/6/3 218/6/3 220/6/3
f 222/5/3 219/5/3 221/5/3
f 226/6/3 224/6/3 223/6/3
f 227/5/3 225/5/3 224/5/3
f 227/6/3 224/6/3 226/6/3
f 228/5/3 225/5/3 227/5/3
f 230/7/3 229/7/3 228/7/3
f 231/7/3 229/7/3 230/7/3
f 232/5/3 231/5/3 230/5/3
f 233/5/3 231/5/3 232/5/3
f 236/7/3 233/7/3 232/7/3
f 237/7/3 233/7/3 236/7/3
f 238/6/3 235/6/3 234/6/3
f 239/5/3 236/5/3 235/5/3
f 239/6/3 235/6/3 238/6/3
f 240/5/3 236/5/3 239/5/3
f 243/5/3 242/5/3 241/5/3
f 244/5/3 242/5/3 243/5/3
f 247/5/3 246/5/3 245/5/3
f 248/5/3 246/5/3 247/5/3
f 251/7/3 250/7/3 249/7/3
f 254/7/3 251/7/3 249/7/3
f 254/7/3 252/7/3 251/7/3
f 255/7/3 252/7/3 254/7/3
f 256/7/3 252/7/3 255/7/3
f 257/5/3 253/5/3 252/5/3
f 257/7/3 252/7/3 256/7/3
f 258/5/3 253/5/3 257/5/3
f 259/7/3 256/7/3 255/7/3
f 260/7/3 256/7/3 259/7/3
f 263/5/3 262/5/3 261/5/3
f 264/5/3 262/5/3 263/5/3
f 265/5/3 262/5/3 264/5/3
f 269/5/3 267/5/3 266/5/3
f 269/5/3 268/5/3 267/5/3
f 270/5/3 268/5/3 269/5/3
f 273/3/3 272/3/3 271/3/3
f 274/3/3 272/3/3 273/3/3
f 277/7/3 276/7/3 275/7/3
f 278/7/3 276/7/3 277/7/3
f 279/7/3 277/7/3 275/7/3
f 279/5/3 278/5/3 277/5/3
f 280/7/3 276/7/3 278/7/3
f 280/5/3 278/5/3 279/5/3
f 281/7/3 279/7/3 275/7/3
f 281/7/3 280/7/3 279/7/3
f 282/7/3 276/7/3 280/7/3
f 282/7/3 280/7/3 281/7/3
f 285/3/3 284/3/3 283/3/3
f 286/3/3 284/3/3 285/3/3
f 292/1/3 288/1/3 287/1/3
f 293/1/3 288/1/3 292/1/3
f 294/3/3 290/3/3 289/3/3
f 295/2/3 291/2/3 290/2/3
f 295/3/3 290/3/3 294/3/3
f 296/2/3 291/2/3 295/2/3
f 302/1/3 298/1/3 297/1/3
f 303/1/3 298/1/3 302/1/3
f 304/3/3 300/3/3 299/3/3
f 305/2/3 301/2/3 300/2/3
f 305/3/3 300/3/3 304/3/3
f 306/2/3 301/2/3 305/2/3
f 310/2/3 308/2/3 307/2/3
f 311/2/3 308/2/3 310/2/3
f 312/2/3 310/2/3 309/2/3
f 313/2/3 310/2/3 312/2/3
f 316/2/3 315/2/3 314/2/3
f 317/2/3 315/2/3 316/2/3
f 319/2/3 318/2/3 317/2/3
f 320/2/3 318/2/3 319/2/3
f 321/8/4 322/8/4 324/8/4
f 322/5/4 323/5/4 324/5/4
f 324/5/4 323/5/4 325/5/4
f 321/8/4 324/8/4 326/8/4
f 324/7/4 325/7/4 326/7/4
f 326/7/4 325/7/4 327/7/4
f 321/8/4 326/8/4 328/8/4
f 326/5/4 327/5/4 329/5/4
f 328/8/4 326/8/4 329/8/4
f 329/5/4 327/5/4 330/5/4
f 331/7/4 332/7/4 335/7/4
f 332/7/4 333/7/4 335/7/4
f 335/7/4 333/7/4 336/7/4
f 333/5/4 334/5/4 337/5/4
f 336/7/4 333/7/4 337/7/4
f 337/5/4 334/5/4 338/5/4
f 339/6/4 340/6/4 343/6/4
f 340/5/4 341/5/4 343/5/4
f 341/4/4 342/4/4 344/4/4
f 343/5/4 341/5/4 344/5/4
f 344/4/4 342/4/4 345/4/4
f 343/7/4 344/7/4 348/7/4
f 346/7/4 347/7/4 348/7/4
f 345/7/4 346/7/4 348/7/4
f 344/7/4 345/7/4 348/7/4
f 348/7/4 347/7/4 349/7/4
f 343/7/4 348/7/4 350/7/4
f 348/5/4 349/5/4 350/5/4
f 349/7/4 347/7/4 351/7/4
f 350/5/4 349/5/4 351/5/4
f 339/6/4 343/6/4 352/6/4
f 343/7/4 350/7/4 352/7/4
f 350/7/4 351/7/4 352/7/4
f 352/7/4 351/7/4 353/7/4
f 353/7/4 351/7/4 354/7/4
f 351/7/4 347/7/4 355/7/4
f 354/7/4 351/7/4 355/7/4
f 355/7/4 347/7/4 356/7/4
f 339/6/4 352/6/4 357/6/4
f 352/5/4 353/5/4 358/5/4
f 357/6/4 352/6/4 358/6/4
f 353/4/4 354/4/4 359/4/4
f 358/5/4 353/5/4 359/5/4
f 359/4/4 354/4/4 360/4/4
f 361/1/4 362/1/4 363/1/4
f 363/1/4 362/1/4 364/1/4
f 365/1/4 366/1/4 367/1/4
f 367/1/4 366/1/4 368/1/4
f 369/1/4 370/1/4 372/1/4
f 372/1/4 370/1/4 373/1/4
f 371/4/4 372/4/4 376/4/4
f 372/4/4 373/4/4 376/4/4
f 376/4/4 373/4/4 377/4/4
f 374/2/4 375/2/4 378/2/4
f 378/2/4 375/2/4 379/2/4
f 380/4/4 381/4/4 384/4/4
f 384/4/4 381/4/4 385/4/4
f 385/4/4 381/4/4 386/4/4
f 382/2/4 383/2/4 387/2/4
f 387/2/4 383/2/4 388/2/4
f 385/1/4 386/1/4 389/1/4
f 389/1/4 386/1/4 390/1/4
f 391/3/4 392/3/4 393/3/4
f 393/3/4 392/3/4 394/3/4
f 395/3/4 396/3/4 397/3/4
f 397/3/4 396/3/4 398/3/4
f 399/1/4 400/1/4 401/1/4
f 401/1/4 400/1/4 402/1/4
f 403/1/4 404/1/4 405/1/4
f 405/1/4 404/1/4 406/1/4
f 407/1/4 408/1/4 410/1/4
f 408/2/4 409/2/4 411/2/4
f 410/1/4 408/1/4 411/1/4
f 411/2/4 409/2/4 412/2/4
f 413/1/4 414/1/4 416/1/4
f 414/2/4 415/2/4 417/2/4
f 416/1/4 414/1/4 417/1/4
f 417/2/4 415/2/4 418/2/4
f 422/6/5 420/6/5 419/6/5
f 423/6/5 420/6/5 422/6/5
f 425/6/5 422/6/5 421/6/5
f 425/6/5 424/6/5 423/6/5
f 425/6/5 423/6/5 422/6/5
f 426/6/5 424/6/5 425/6/5
f 431/7/5 428/7/5 427/7/5
f 431/7/5 430/7/5 429/7/5
f 431/7/5 429/7/5 428/7/5
f 432/7/5 430/7/5 431/7/5
f 439/1/5 434/1/5 433/1/5
f 440/4/5 435/4/5 434/4/5
f 440/1/5 434/1/5 439/1/5
f 441/1/5 438/1/5 437/1/5
f 441/4/5 437/4/5 436/4/5
f 442/1/5 438/1/5 441/1/5
f 443/4/5 435/4/5 440/4/5
f 444/4/5 435/4/5 443/4/5
f 445/4/5 441/4/5 436/4/5
f 446/4/5 441/4/5 445/4/5
f 451/3/5 448/3/5 447/3/5
f 452/3/5 448/3/5 451/3/5
f 453/3/5 450/3/5 449/3/5
f 454/3/5 450/3/5 453/3/5
f 459/1/5 456/1/5 455/1/5
f 460/1/5 456/1/5 459/1/5
f 461/1/5 458/1/5 457/1/5
f 462/1/5 458/1/5 461/1/5
f 469/1/5 464/1/5 463/1/5
f 469/3/5 465/3/5 464/3/5
f 470/3/5 465/3/5 469/3/5
f 471/3/5 467/3/5 466/3/5
f 472/1/5 468/1/5 467/1/5
f 472/3/5 467/3/5 471/3/5
f 473/1/5 469/1/5 463/1/5
f 474/1/5 469/1/5 473/1/5
f 475/1/5 468/1/5 472/1/5
f 476/1/5 468/1/5 475/1/5
f 481/1/5 478/1/5 477/1/5
f 482/1/5 478/1/5 481/1/5
f 483/1/5 480/1/5 479/1/5
f 484/1/5 480/1/5 483/1/5
f 485/6/6 486/6/6 487/6/6
f 487/6/6 486/6/6 488/6/6
f 487/6/6 488/6/6 489/6/6
f 489/6/6 488/6/6 490/6/6
f 491/5/6 492/5/6 494/5/6
f 494/5/6 492/5/6 495/5/6
f 495/5/6 492/5/6 496/5/6
f 496/5/6 492/5/6 497/5/6
f 493/5/6 494/5/6 499/5/6
f 499/5/6 494/5/6 500/5/6
f 497/5/6 498/5/6 501/5/6
f 501/5/6 498/5/6 502/5/6
f 503/7/6 504/7/6 508/7/6
f 504/5/6 505/5/6 509/5/6
f 508/7/6 504/7/6 509/7/6
f 505/7/6 506/7/6 510/7/6
f 509/5/6 505/5/6 510/5/6
f 510/7/6 506/7/6 511/7/6
f 508/5/6 509/5/6 513/5/6
f 507/5/6 508/5/6 513/5/6
f 509/7/6 510/7/6 514/7/6
f 513/5/6 509/5/6 514/5/6
f 511/5/6 512/5/6 515/5/6
f 514/7/6 510/7/6 515/7/6
f 510/5/6 511/5/6 515/5/6
f 515/5/6 512/5/6 516/5/6
f 517/7/6 518/7/6 521/7/6
f 521/7/6 518/7/6 522/7/6
f 519/7/6 520/7/6 523/7/6
f 523/7/6 520/7/6 524/7/6
f 525/3/6 526/3/6 529/3/6
f 529/3/6 526/3/6 530/3/6
f 527/3/6 528/3/6 531/3/6
f 531/3/6 528/3/6 532/3/6
f 533/5/6 534/5/6 536/5/6
f 536/5/6 534/5/6 537/5/6
f 535/5/6 536/5/6 539/5/6
f 539/5/6 536/5/6 540/5/6
f 537/5/6 538/5/6 541/5/6
f 541/5/6 538/5/6 542/5/6
f 539/2/6 540/2/6 543/2/6
f 540/7/6 541/7/6 544/7/6
f 543/2/6 540/2/6 544/2/6
f 541/2/6 542/2/6 545/2/6
f 544/7/6 541/7/6 545/7/6
f 545/2/6 542/2/6 546/2/6
f 543/2/6 544/2/6 547/2/6
f 547/2/6 544/2/6 548/2/6
f 545/2/6 546/2/6 549/2/6
f 549/2/6 546/2/6 550/2/6
f 551/3/6 552/3/6 555/3/6
f 555/3/6 552/3/6 556/3/6
f 553/3/6 554/3/6 557/3/6
f 557/3/6 554/3/6 558/3/6
f 559/2/6 560/2/6 563/2/6
f 563/2/6 560/2/6 564/2/6
f 561/2/6 562/2/6 567/2/6
f 567/2/6 562/2/6 568/2/6
f 564/2/6 565/2/6 569/2/6
f 569/2/6 565/2/6 570/2/6
f 566/2/6 567/2/6 571/2/6
f 571/2/6 567/2/6 572/2/6
f 573/2/6 574/2/6 577/2/6
f 577/2/6 574/2/6 578/2/6
f 575/2/6 576/2/6 579/2/6
f 579/2/6 576/2/6 580/2/6
