# MagicaVoxel @ Ephtracy

# group
g Fire Crystal

# material
mtllib Fire Crystal.mtl
usemtl palette

# normals
vn -1 0 0
vn 1 0 0
vn 0 0 1
vn 0 0 -1
vn 0 -1 0
vn 0 1 0

# texcoords
vt 0.919922 0.5
vt 0.923828 0.5
vt 0.943359 0.5
vt 0.947266 0.5
vt 0.978516 0.5

# verts
v -1.5 1 0.5
v -1.5 1 -0.5
v -1.5 2 1.5
v -1.5 2 0.5
v -1.5 2 -0.5
v -1.5 3 1.5
v -1.5 3 0.5
v -1.5 3 -0.5
v -1.5 5 1.5
v -1.5 5 0.5
v -1.5 6 0.5
v -1.5 6 -0.5
v -0.5 0 0.5
v -0.5 0 -0.5
v -0.5 1 1.5
v -0.5 1 0.5
v -0.5 1 -0.5
v -0.5 1 -1.5
v -0.5 2 1.5
v -0.5 2 0.5
v -0.5 2 -0.5
v -0.5 2 -1.5
v -0.5 3 -0.5
v -0.5 4 -0.5
v -0.5 4 -1.5
v -0.5 5 1.5
v -0.5 5 0.5
v -0.5 6 0.5
v -0.5 6 -0.5
v -0.5 6 -1.5
v -0.5 7 1.5
v -0.5 7 0.5
v -0.5 8 0.5
v -0.5 8 -0.5
v 0.5 0 0.5
v 0.5 0 -0.5
v 0.5 1 1.5
v 0.5 1 0.5
v 0.5 1 -0.5
v 0.5 1 -1.5
v 0.5 2 1.5
v 0.5 2 0.5
v 0.5 2 -0.5
v 0.5 2 -1.5
v 0.5 4 0.5
v 0.5 4 -0.5
v 0.5 4 -1.5
v 0.5 5 1.5
v 0.5 5 0.5
v 0.5 5 -0.5
v 0.5 5 -1.5
v 0.5 6 0.5
v 0.5 6 -0.5
v 0.5 6 -1.5
v 0.5 7 1.5
v 0.5 7 0.5
v 1.5 1 0.5
v 1.5 1 -0.5
v 1.5 2 1.5
v 1.5 2 0.5
v 1.5 2 -0.5
v 1.5 3 1.5
v 1.5 3 0.5
v 1.5 4 0.5
v 1.5 4 -0.5
v 1.5 4 -1.5
v 1.5 5 1.5
v 1.5 5 0.5
v 1.5 5 -0.5
v 1.5 5 -1.5
v 1.5 6 0.5
v 1.5 6 -0.5
v 1.5 8 0.5
v 1.5 8 -0.5
v -1.5 2 1.5
v -1.5 3 1.5
v -1.5 5 1.5
v -0.5 1 1.5
v -0.5 2 1.5
v -0.5 3 1.5
v -0.5 4 1.5
v -0.5 5 1.5
v -0.5 7 1.5
v 0.5 1 1.5
v 0.5 2 1.5
v 0.5 3 1.5
v 0.5 4 1.5
v 0.5 5 1.5
v 0.5 7 1.5
v 1.5 2 1.5
v 1.5 3 1.5
v 1.5 5 1.5
v -1.5 1 0.5
v -1.5 2 0.5
v -1.5 5 0.5
v -1.5 6 0.5
v -0.5 0 0.5
v -0.5 1 0.5
v -0.5 2 0.5
v -0.5 5 0.5
v -0.5 6 0.5
v -0.5 7 0.5
v -0.5 8 0.5
v 0.5 0 0.5
v 0.5 1 0.5
v 0.5 2 0.5
v 0.5 5 0.5
v 0.5 6 0.5
v 0.5 7 0.5
v 0.5 8 0.5
v 1.5 1 0.5
v 1.5 2 0.5
v 1.5 5 0.5
v 1.5 6 0.5
v 1.5 8 0.5
v 0.5 4 -0.5
v 0.5 5 -0.5
v 1.5 4 -0.5
v 1.5 5 -0.5
v 0.5 4 0.5
v 0.5 5 0.5
v 1.5 4 0.5
v 1.5 5 0.5
v -1.5 1 -0.5
v -1.5 2 -0.5
v -1.5 3 -0.5
v -1.5 6 -0.5
v -0.5 0 -0.5
v -0.5 1 -0.5
v -0.5 2 -0.5
v -0.5 3 -0.5
v -0.5 4 -0.5
v -0.5 6 -0.5
v -0.5 8 -0.5
v 0.5 0 -0.5
v 0.5 1 -0.5
v 0.5 2 -0.5
v 0.5 4 -0.5
v 0.5 5 -0.5
v 0.5 6 -0.5
v 0.5 8 -0.5
v 1.5 1 -0.5
v 1.5 2 -0.5
v 1.5 4 -0.5
v 1.5 5 -0.5
v 1.5 6 -0.5
v 1.5 8 -0.5
v -0.5 1 -1.5
v -0.5 2 -1.5
v -0.5 4 -1.5
v -0.5 6 -1.5
v 0.5 1 -1.5
v 0.5 2 -1.5
v 0.5 4 -1.5
v 0.5 5 -1.5
v 0.5 6 -1.5
v 1.5 4 -1.5
v 1.5 5 -1.5
v -0.5 0 0.5
v 0.5 0 0.5
v -0.5 0 -0.5
v 0.5 0 -0.5
v -0.5 1 1.5
v 0.5 1 1.5
v -1.5 1 0.5
v -0.5 1 0.5
v 0.5 1 0.5
v 1.5 1 0.5
v -1.5 1 -0.5
v -0.5 1 -0.5
v 0.5 1 -0.5
v 1.5 1 -0.5
v -0.5 1 -1.5
v 0.5 1 -1.5
v -1.5 2 1.5
v -0.5 2 1.5
v 0.5 2 1.5
v 1.5 2 1.5
v -1.5 2 0.5
v -0.5 2 0.5
v 0.5 2 0.5
v 1.5 2 0.5
v 0.5 4 -0.5
v 1.5 4 -0.5
v 0.5 4 -1.5
v 1.5 4 -1.5
v 0.5 5 0.5
v 1.5 5 0.5
v 0.5 5 -0.5
v 1.5 5 -0.5
v 0.5 4 0.5
v 1.5 4 0.5
v 0.5 4 -0.5
v 1.5 4 -0.5
v -1.5 5 1.5
v -0.5 5 1.5
v 0.5 5 1.5
v 1.5 5 1.5
v -1.5 5 0.5
v -0.5 5 0.5
v 0.5 5 0.5
v 1.5 5 0.5
v 0.5 5 -0.5
v 1.5 5 -0.5
v 0.5 5 -1.5
v 1.5 5 -1.5
v -1.5 6 0.5
v -0.5 6 0.5
v -1.5 6 -0.5
v -0.5 6 -0.5
v 0.5 6 -0.5
v -0.5 6 -1.5
v 0.5 6 -1.5
v -0.5 7 1.5
v 0.5 7 1.5
v -0.5 7 0.5
v 0.5 7 0.5
v -0.5 8 0.5
v 0.5 8 0.5
v 1.5 8 0.5
v -0.5 8 -0.5
v 0.5 8 -0.5
v 1.5 8 -0.5

# faces
f 4/4/1 2/4/1 1/4/1
f 5/4/1 2/4/1 4/4/1
f 6/5/1 4/5/1 3/5/1
f 7/1/1 5/1/1 4/1/1
f 7/5/1 4/5/1 6/5/1
f 8/1/1 5/1/1 7/1/1
f 9/1/1 7/1/1 6/1/1
f 10/2/1 8/2/1 7/2/1
f 10/1/1 7/1/1 9/1/1
f 11/2/1 8/2/1 10/2/1
f 12/2/1 8/2/1 11/2/1
f 16/4/1 14/4/1 13/4/1
f 17/4/1 14/4/1 16/4/1
f 19/4/1 16/4/1 15/4/1
f 20/4/1 16/4/1 19/4/1
f 21/3/1 18/3/1 17/3/1
f 22/3/1 18/3/1 21/3/1
f 23/1/1 22/1/1 21/1/1
f 24/1/1 22/1/1 23/1/1
f 25/1/1 22/1/1 24/1/1
f 28/2/1 27/2/1 26/2/1
f 29/3/1 25/3/1 24/3/1
f 30/3/1 25/3/1 29/3/1
f 31/2/1 28/2/1 26/2/1
f 32/3/1 29/3/1 28/3/1
f 32/2/1 28/2/1 31/2/1
f 33/3/1 29/3/1 32/3/1
f 34/3/1 29/3/1 33/3/1
f 35/4/2 36/4/2 38/4/2
f 38/4/2 36/4/2 39/4/2
f 37/4/2 38/4/2 41/4/2
f 41/4/2 38/4/2 42/4/2
f 39/3/2 40/3/2 43/3/2
f 43/3/2 40/3/2 44/3/2
f 43/1/2 44/1/2 46/1/2
f 46/1/2 44/1/2 47/1/2
f 45/3/2 46/3/2 49/3/2
f 49/3/2 46/3/2 50/3/2
f 48/2/2 49/2/2 52/2/2
f 50/3/2 51/3/2 53/3/2
f 53/3/2 51/3/2 54/3/2
f 48/2/2 52/2/2 55/2/2
f 55/2/2 52/2/2 56/2/2
f 57/4/2 58/4/2 60/4/2
f 60/4/2 58/4/2 61/4/2
f 59/5/2 60/5/2 62/5/2
f 60/1/2 61/1/2 63/1/2
f 62/5/2 60/5/2 63/5/2
f 62/1/2 63/1/2 64/1/2
f 63/1/2 61/1/2 64/1/2
f 64/1/2 61/1/2 65/1/2
f 62/1/2 64/1/2 67/1/2
f 67/1/2 64/1/2 68/1/2
f 65/3/2 66/3/2 69/3/2
f 69/3/2 66/3/2 70/3/2
f 68/1/2 69/1/2 71/1/2
f 71/1/2 69/1/2 72/1/2
f 71/2/2 72/2/2 73/2/2
f 73/2/2 72/2/2 74/2/2
f 79/5/3 76/5/3 75/5/3
f 80/1/3 77/1/3 76/1/3
f 80/5/3 76/5/3 79/5/3
f 81/1/3 77/1/3 80/1/3
f 82/1/3 77/1/3 81/1/3
f 84/4/3 79/4/3 78/4/3
f 85/5/3 80/5/3 79/5/3
f 85/4/3 79/4/3 84/4/3
f 85/5/3 81/5/3 80/5/3
f 86/5/3 81/5/3 85/5/3
f 87/3/3 82/3/3 81/3/3
f 87/5/3 81/5/3 86/5/3
f 88/2/3 83/2/3 82/2/3
f 88/3/3 82/3/3 87/3/3
f 89/2/3 83/2/3 88/2/3
f 90/5/3 86/5/3 85/5/3
f 91/1/3 87/1/3 86/1/3
f 91/5/3 86/5/3 90/5/3
f 91/1/3 88/1/3 87/1/3
f 92/1/3 88/1/3 91/1/3
f 98/4/3 94/4/3 93/4/3
f 99/4/3 94/4/3 98/4/3
f 100/2/3 96/2/3 95/2/3
f 101/2/3 96/2/3 100/2/3
f 104/4/3 98/4/3 97/4/3
f 105/4/3 98/4/3 104/4/3
f 109/3/3 103/3/3 102/3/3
f 110/3/3 103/3/3 109/3/3
f 111/4/3 106/4/3 105/4/3
f 112/4/3 106/4/3 111/4/3
f 113/1/3 108/1/3 107/1/3
f 114/2/3 110/2/3 109/2/3
f 114/1/3 108/1/3 113/1/3
f 114/2/3 109/2/3 108/2/3
f 115/2/3 110/2/3 114/2/3
f 118/3/3 117/3/3 116/3/3
f 119/3/3 117/3/3 118/3/3
f 120/1/4 121/1/4 122/1/4
f 122/1/4 121/1/4 123/1/4
f 124/4/4 125/4/4 129/4/4
f 125/1/4 126/1/4 130/1/4
f 129/4/4 125/4/4 130/4/4
f 126/2/4 127/2/4 131/2/4
f 130/1/4 126/1/4 131/1/4
f 131/2/4 127/2/4 132/2/4
f 132/2/4 127/2/4 133/2/4
f 128/4/4 129/4/4 135/4/4
f 135/4/4 129/4/4 136/4/4
f 133/3/4 134/3/4 140/3/4
f 140/3/4 134/3/4 141/3/4
f 136/4/4 137/4/4 142/4/4
f 137/1/4 138/1/4 143/1/4
f 142/4/4 137/4/4 143/4/4
f 143/1/4 138/1/4 144/1/4
f 139/1/4 140/1/4 145/1/4
f 140/2/4 141/2/4 146/2/4
f 145/1/4 140/1/4 146/1/4
f 146/2/4 141/2/4 147/2/4
f 148/3/4 149/3/4 152/3/4
f 149/1/4 150/1/4 153/1/4
f 152/3/4 149/3/4 153/3/4
f 150/3/4 151/3/4 154/3/4
f 153/1/4 150/1/4 154/1/4
f 154/3/4 151/3/4 155/3/4
f 155/3/4 151/3/4 156/3/4
f 154/3/4 155/3/4 157/3/4
f 157/3/4 155/3/4 158/3/4
f 161/4/5 160/4/5 159/4/5
f 162/4/5 160/4/5 161/4/5
f 166/4/5 164/4/5 163/4/5
f 167/4/5 164/4/5 166/4/5
f 169/4/5 166/4/5 165/4/5
f 170/4/5 166/4/5 169/4/5
f 171/4/5 168/4/5 167/4/5
f 172/4/5 168/4/5 171/4/5
f 173/3/5 171/3/5 170/3/5
f 174/3/5 171/3/5 173/3/5
f 179/5/5 176/5/5 175/5/5
f 180/5/5 176/5/5 179/5/5
f 181/5/5 178/5/5 177/5/5
f 182/5/5 178/5/5 181/5/5
f 185/3/5 184/3/5 183/3/5
f 186/3/5 184/3/5 185/3/5
f 189/1/5 188/1/5 187/1/5
f 190/1/5 188/1/5 189/1/5
f 191/1/6 192/1/6 193/1/6
f 193/1/6 192/1/6 194/1/6
f 195/1/6 196/1/6 199/1/6
f 199/1/6 196/1/6 200/1/6
f 197/1/6 198/1/6 201/1/6
f 201/1/6 198/1/6 202/1/6
f 203/3/6 204/3/6 205/3/6
f 205/3/6 204/3/6 206/3/6
f 207/2/6 208/2/6 209/2/6
f 209/2/6 208/2/6 210/2/6
f 210/3/6 211/3/6 212/3/6
f 212/3/6 211/3/6 213/3/6
f 214/2/6 215/2/6 216/2/6
f 216/2/6 215/2/6 217/2/6
f 218/3/6 219/3/6 221/3/6
f 219/2/6 220/2/6 222/2/6
f 221/3/6 219/3/6 222/3/6
f 222/2/6 220/2/6 223/2/6
