# Created by Kenney (www.kenney.nl)

mtllib weapon.mtl

g mergedBlocks

v 0.15 1 -0.5
v 0.15 1 -2.887646E-15
v -0.15 1 -0.5
v -0.15 1 -2.887646E-15
v -0.2 0.75 -0.5
v 0.2 0.75 -0.5
v -0.2 0.85 -0.5
v 0.2 0.85 -0.5
v -0.2 0.85 -2.887646E-15
v 0.2 0.85 -2.887646E-15
v 0.2 0.75 -2.887646E-15
v -0.2 0.75 -2.887646E-15
v 0.08660254 0.75 -5.775291E-15
v 0.09659258 0.7741181 -2.887646E-15
v 0.1 0.8 -2.887646E-15
v 0.09659258 0.8258818 -2.887646E-15
v 0.08660254 0.85 -2.887646E-15
v 0.07071068 0.8707107 -2.887646E-15
v 0.05 0.8866026 -2.887646E-15
v 0.02588191 0.8965926 -2.887646E-15
v 1.443823E-15 0.9 -2.887646E-15
v -0.02588191 0.8965926 -2.887646E-15
v -0.05 0.8866026 -2.887646E-15
v -0.07071068 0.8707107 -2.887646E-15
v -0.08660254 0.85 -2.887646E-15
v -0.09659258 0.8258818 -2.887646E-15
v -0.1 0.8 -2.887646E-15
v -0.09659258 0.7741181 -2.887646E-15
v -0.08660254 0.75 -5.775291E-15
v 0.15 0.5 -0.1
v 0.15 0.5 -0.5
v -0.15 0.5 -0.1
v -0.15 0.5 -0.5
v 0.2 0.65 -0.5
v 0.2 0.65 -2.887646E-15
v -0.2 0.65 -0.5
v -0.2 0.65 -2.887646E-15
v 0.02588191 0.7034074 -5.775291E-15
v 1.443823E-15 0.7 -5.775291E-15
v 0.05 0.7133974 -5.775291E-15
v 0.07071068 0.7292893 -5.775291E-15
v -0.02588191 0.7034074 -5.775291E-15
v -0.05 0.7133974 -5.775291E-15
v -0.07071068 0.7292893 -5.775291E-15
v 0.07071068 0.8707107 0.05
v 0.08660254 0.85 0.05
v 1.443823E-15 0.7 0.05
v -0.02588191 0.7034074 0.05
v -0.05 0.8866026 0.05
v -0.07071068 0.8707107 0.05
v 0.05 0.7133974 0.05
v 0.02588191 0.7034074 0.05
v -0.08660254 0.85 0.05
v 1.443823E-15 0.9 0.05
v -0.02588191 0.8965926 0.05
v 0.08660254 0.75 0.05
v 0.09659258 0.7741181 0.05
v 0.05 0.8866026 0.05
v -0.1 0.8 0.05
v -0.09659258 0.8258818 0.05
v -0.08660254 0.75 0.05
v -0.09659258 0.7741181 0.05
v 0.07071068 0.7292893 0.05
v 0.02588191 0.8965926 0.05
v 0.1 0.8 0.05
v 0.09659258 0.8258818 0.05
v -0.05 0.7133974 0.05
v -0.07071068 0.7292893 0.05
v 0.01294095 0.7517037 0.3
v 0.01294095 0.7517037 0.5
v 1.443823E-15 0.75 0.3
v 1.443823E-15 0.75 0.5
v -0.01294095 0.7517037 0.3
v -0.01294095 0.7517037 0.5
v 0.025 0.7566987 0.3
v 0.025 0.7566987 0.5
v 0.04829629 0.787059 0.3
v 0.05 0.8 0.3
v 0.04829629 0.787059 0.5
v 0.05 0.8 0.5
v 0.04330127 0.825 0.3
v 0.03535534 0.8353553 0.3
v 0.04330127 0.825 0.5
v 0.03535534 0.8353553 0.5
v 0.025 0.8433012 0.5
v 0.025 0.8433012 0.3
v -0.05 0.8 0.3
v -0.04829629 0.787059 0.3
v -0.05 0.8 0.5
v -0.04829629 0.787059 0.5
v -0.025 0.7566987 0.3
v -0.025 0.7566987 0.5
v -0.04330127 0.775 0.3
v -0.03535534 0.7646446 0.3
v -0.04330127 0.775 0.5
v -0.03535534 0.7646446 0.5
v 0.04330127 0.775 0.3
v 0.04330127 0.775 0.5
v 0.03535534 0.7646446 0.3
v -0.04829629 0.812941 0.3
v 0.04829629 0.812941 0.3
v -0.04330127 0.825 0.3
v -0.03535534 0.8353553 0.3
v -0.025 0.8433012 0.3
v 0.01294095 0.8482963 0.3
v -0.01294095 0.8482963 0.3
v 1.443823E-15 0.85 0.3
v -0.04829629 0.812941 0.5
v 1.443823E-15 0.85 0.5
v -0.01294095 0.8482963 0.5
v -0.025 0.8433012 0.5
v -0.03535534 0.8353553 0.5
v 0.03535534 0.7646446 0.5
v 0.04829629 0.812941 0.5
v -0.04330127 0.825 0.5
v 0.01294095 0.8482963 0.5
v 1.443823E-15 0.65 0.05
v 0.03882286 0.6551111 0.05
v -0.03882286 0.6551111 0.05
v -0.075 0.6700962 0.05
v 0.075 0.6700962 0.05
v -0.106066 0.693934 0.05
v 0.106066 0.693934 0.05
v -0.1299038 0.725 0.05
v -0.1448889 0.7611771 0.05
v -0.15 0.8 0.05
v -0.1448889 0.8388228 0.05
v -0.1299038 0.875 0.05
v -0.106066 0.906066 0.05
v 0.106066 0.906066 0.05
v 0.1299038 0.875 0.05
v 0.1448889 0.8388228 0.05
v 0.15 0.8 0.05
v 0.1448889 0.7611771 0.05
v 0.1299038 0.725 0.05
v -0.075 0.9299038 0.05
v 0.075 0.9299038 0.05
v -0.03882286 0.9448888 0.05
v 0.03882286 0.9448888 0.05
v 1.443823E-15 0.9499999 0.05
v 0.1299038 0.725 0.5
v 0.106066 0.693934 0.5
v 0.1448889 0.7611771 0.5
v 0.075 0.6700962 0.5
v 0.03882286 0.6551111 0.5
v 1.443823E-15 0.65 0.5
v -0.03882286 0.6551111 0.5
v -0.075 0.6700962 0.5
v -0.106066 0.693934 0.5
v -0.1299038 0.725 0.5
v 0.15 0.8 0.5
v 0.1448889 0.8388228 0.5
v 0.1299038 0.875 0.5
v -0.1299038 0.875 0.5
v -0.1448889 0.8388228 0.5
v -0.15 0.8 0.5
v -0.1448889 0.7611771 0.5
v 0.106066 0.906066 0.5
v -0.106066 0.906066 0.5
v 0.075 0.9299038 0.5
v -0.075 0.9299038 0.5
v -0.03882286 0.9448888 0.5
v 0.03882286 0.9448888 0.5
v 1.443823E-15 0.9499999 0.5

vn 0 1 0
vn 0 0 -1
vn -0.9486833 0.3162278 0
vn 1 0 0
vn -1 0 0
vn 0.9486833 0.3162278 0
vn 0 0 1
vn 0 -1 0
vn 0.9486833 -0.3162278 0
vn -0.9486833 -0.3162278 0
vn 0 -0.5547002 0.8320503
vn 0.7071068 0.7071068 0
vn 0.8660254 0.5 0
vn -0.258819 -0.9659258 0
vn -0.5 0.8660254 0
vn -0.7071068 0.7071068 0
vn 0.5 -0.8660254 0
vn 0.258819 -0.9659258 0
vn -0.8660254 0.5 0
vn -0.258819 0.9659258 0
vn 0.8660254 -0.5 0
vn 0.9659258 -0.258819 0
vn 0.5 0.8660254 0
vn -0.9659258 0.258819 0
vn -0.8660254 -0.5 0
vn -0.9659258 -0.258819 0
vn 0.7071068 -0.7071068 0
vn 0.258819 0.9659258 0
vn 0.9659258 0.258819 0
vn -0.5 -0.8660254 0
vn -0.7071068 -0.7071068 0

vt -0.15 -0.5
vt -0.15 -2.887646E-15
vt 0.15 -0.5
vt 0.15 -2.887646E-15
vt 0.2 0.75
vt -0.2 0.75
vt 0.2 0.85
vt -0.2 0.85
vt 0.15 1
vt -0.15 1
vt -0.5 0.85
vt -0.5 1
vt -2.887646E-15 0.85
vt -2.887646E-15 1
vt 0.5 0.85
vt 0.5 0.75
vt 2.887646E-15 0.85
vt 2.887646E-15 0.75
vt -0.5 0.75
vt -2.887646E-15 0.75
vt 0.5 1
vt 2.887646E-15 1
vt 0.08660254 0.75
vt 0.09659258 0.7741181
vt 0.1 0.8
vt 0.09659258 0.8258818
vt 0.08660254 0.85
vt 0.07071068 0.8707107
vt 0.05 0.8866026
vt 0.02588191 0.8965926
vt 1.443823E-15 0.9
vt -0.02588191 0.8965926
vt -0.05 0.8866026
vt -0.07071068 0.8707107
vt -0.08660254 0.85
vt -0.09659258 0.8258818
vt -0.1 0.8
vt -0.09659258 0.7741181
vt -0.08660254 0.75
vt -0.15 0.1
vt -0.15 0.5
vt 0.15 0.1
vt 0.15 0.5
vt 0.5 0.65
vt 0.5 0.5
vt 2.887646E-15 0.65
vt 0.1 0.5
vt -0.5 0.65
vt -2.887646E-15 0.65
vt 0.2 0.65
vt -0.2 0.65
vt -0.5 0.5
vt -0.1 0.5
vt 0.02588191 0.7034074
vt 1.443823E-15 0.7
vt 0.05 0.7133974
vt 0.07071068 0.7292893
vt -0.02588191 0.7034074
vt -0.05 0.7133974
vt -0.07071068 0.7292893
vt 2.887646E-15 0.8707107
vt -0.05 0.8707107
vt -0.05 0.85
vt -1.443823E-15 -0.05
vt -1.443823E-15 5.775291E-15
vt 0.02588191 -0.05
vt 0.02588191 5.775291E-15
vt 0.05 -2.887646E-15
vt 0.05 0.05
vt 0.07071068 -2.887646E-15
vt 0.07071068 0.05
vt -0.05 -0.05
vt -0.05 5.775291E-15
vt -0.02588191 -0.05
vt -0.02588191 5.775291E-15
vt -2.887646E-15 0.8707107
vt 0.05 0.85
vt 0.05 0.8707107
vt -1.443823E-15 -2.887646E-15
vt -1.443823E-15 0.05
vt 0.02588191 -2.887646E-15
vt 0.02588191 0.05
vt 5.775291E-15 0.75
vt -0.05 0.75
vt 2.887646E-15 0.7741181
vt -0.05 0.7741181
vt -0.07071068 -2.887646E-15
vt -0.07071068 0.05
vt -0.05 -2.887646E-15
vt -0.05 0.05
vt -2.887646E-15 0.8
vt -2.887646E-15 0.8258818
vt 0.05 0.8
vt 0.05 0.8258818
vt -5.775291E-15 0.75
vt -2.887646E-15 0.7741181
vt 0.05 0.75
vt 0.05 0.7741181
vt -0.07071068 -0.05
vt -0.07071068 5.775291E-15
vt -0.02588191 -2.887646E-15
vt -0.02588191 0.05
vt 2.887646E-15 0.8
vt -0.05 0.8
vt 5.775291E-15 0.7292893
vt -0.05 0.7292893
vt 2.887646E-15 0.8258818
vt -0.05 0.8258818
vt 0.05 -0.05
vt 0.05 5.775291E-15
vt -5.775291E-15 0.7292893
vt 0.05 0.7292893
vt 0.07071068 -0.05
vt 0.07071068 5.775291E-15
vt -0.01294095 0.3
vt -0.01294095 0.5
vt -1.443823E-15 0.3
vt -1.443823E-15 0.5
vt 0.01294095 0.3
vt 0.01294095 0.5
vt -0.025 0.3
vt -0.025 0.5
vt 0.3 0.787059
vt 0.3 0.8
vt 0.5 0.787059
vt 0.5 0.8
vt 0.3 0.825
vt 0.3 0.8353553
vt 0.5 0.825
vt 0.5 0.8353553
vt -0.03535534 -0.5
vt -0.03535534 -0.3
vt -0.025 -0.5
vt -0.025 -0.3
vt -0.3 0.8
vt -0.3 0.787059
vt -0.5 0.8
vt -0.5 0.787059
vt 0.025 0.3
vt 0.025 0.5
vt -0.3 0.775
vt -0.3 0.7646446
vt -0.5 0.775
vt -0.5 0.7646446
vt 0.3 0.775
vt 0.5 0.775
vt 1.443823E-15 0.75
vt -0.01294095 0.7517037
vt 0.01294095 0.7517037
vt 0.025 0.7566987
vt -0.025 0.7566987
vt 0.03535534 0.7646446
vt -0.03535534 0.7646446
vt -0.04330127 0.775
vt 0.04330127 0.775
vt 0.04829629 0.787059
vt -0.04829629 0.787059
vt -0.04829629 0.812941
vt 0.04829629 0.812941
vt 0.04330127 0.825
vt -0.04330127 0.825
vt 0.03535534 0.8353553
vt -0.03535534 0.8353553
vt -0.025 0.8433012
vt 0.025 0.8433012
vt 0.01294095 0.8482963
vt -0.01294095 0.8482963
vt 1.443823E-15 0.85
vt -0.3 0.812941
vt -0.5 0.812941
vt -1.443823E-15 -0.5
vt -1.443823E-15 -0.3
vt 0.01294095 -0.5
vt 0.01294095 -0.3
vt 0.025 -0.5
vt 0.025 -0.3
vt 0.03535534 -0.5
vt 0.03535534 -0.3
vt 0.03535534 0.3
vt 0.03535534 0.5
vt 0.3 0.7646446
vt 0.5 0.7646446
vt -0.03535534 0.3
vt -0.03535534 0.5
vt 0.3 0.812941
vt 0.5 0.812941
vt -0.3 0.8353553
vt -0.3 0.825
vt -0.5 0.8353553
vt -0.5 0.825
vt -0.01294095 -0.5
vt -0.01294095 -0.3
vt -1.443823E-15 0.65
vt -0.03882286 0.6551111
vt 0.03882286 0.6551111
vt 0.075 0.6700962
vt -0.075 0.6700962
vt 0.106066 0.693934
vt -0.106066 0.693934
vt -1.443823E-15 0.7
vt 0.1299038 0.725
vt 0.1448889 0.7611771
vt 0.15 0.8
vt 0.1448889 0.8388228
vt 0.1299038 0.875
vt 0.106066 0.906066
vt -1.443823E-15 0.9
vt -0.106066 0.906066
vt -0.1299038 0.875
vt -0.1448889 0.8388228
vt -0.15 0.8
vt -0.1448889 0.7611771
vt -0.1299038 0.725
vt 0.075 0.9299038
vt -0.075 0.9299038
vt 0.03882286 0.9448888
vt -0.03882286 0.9448888
vt -1.443823E-15 0.9499999
vt -0.05 0.725
vt -0.05 0.693934
vt -0.5 0.725
vt -0.5 0.693934
vt -0.05 0.7611771
vt -0.5 0.7611771
vt -0.075 -0.5
vt -0.075 -0.05
vt -0.03882286 -0.5
vt -0.03882286 -0.05
vt 1.443823E-15 0.65
vt 1.443823E-15 0.9499999
vt -0.106066 -0.5
vt -0.106066 -0.05
vt 0.075 -0.5
vt 0.075 -0.05
vt 0.106066 -0.5
vt 0.106066 -0.05
vt 0.05 0.693934
vt 0.05 0.725
vt 0.5 0.693934
vt 0.5 0.725
vt 0.05 0.8388228
vt 0.05 0.875
vt 0.5 0.8388228
vt 0.5 0.875
vt -0.05 0.875
vt -0.05 0.8388228
vt -0.5 0.875
vt -0.5 0.8388228
vt 0.03882286 0.05
vt 0.03882286 0.5
vt -0.075 0.05
vt -0.075 0.5
vt -0.03882286 0.05
vt -0.03882286 0.5
vt 0.03882286 -0.5
vt 0.03882286 -0.05
vt 0.05 0.7611771
vt 0.5 0.7611771
vt 0.075 0.05
vt 0.075 0.5
vt 0.106066 0.05
vt 0.106066 0.5
vt -0.106066 0.05
vt -0.106066 0.5
vt 0.05 0.906066
vt 0.5 0.906066
vt -0.05 0.906066
vt -0.5 0.906066

usemtl metalDark(Clone)

f 3/3/1 2/2/1 1/1/1
f 2/2/1 3/3/1 4/4/1
f 7/7/2 6/6/2 5/5/2
f 6/6/2 7/7/2 8/8/2
f 8/8/2 7/7/2 3/9/2
f 8/8/2 3/9/2 1/10/2
f 9/13/3 3/12/3 7/11/3
f 3/12/3 9/13/3 4/14/3
f 10/17/4 6/16/4 8/15/4
f 6/16/4 10/17/4 11/18/4
f 12/20/5 7/11/5 5/19/5
f 7/11/5 12/20/5 9/13/5
f 2/22/6 8/15/6 1/21/6
f 8/15/6 2/22/6 10/17/6
f 11/5/7 14/24/7 13/23/7
f 14/24/7 11/5/7 10/7/7
f 14/24/7 10/7/7 15/25/7
f 15/25/7 10/7/7 16/26/7
f 16/26/7 10/7/7 17/27/7
f 17/27/7 10/7/7 2/9/7
f 17/27/7 2/9/7 18/28/7
f 18/28/7 2/9/7 19/29/7
f 19/29/7 2/9/7 20/30/7
f 20/30/7 2/9/7 21/31/7
f 4/10/7 21/31/7 2/9/7
f 4/10/7 22/32/7 21/31/7
f 4/10/7 23/33/7 22/32/7
f 4/10/7 24/34/7 23/33/7
f 4/10/7 25/35/7 24/34/7
f 9/8/7 25/35/7 4/10/7
f 9/8/7 26/36/7 25/35/7
f 9/8/7 27/37/7 26/36/7
f 9/8/7 28/38/7 27/37/7
f 12/6/7 28/38/7 9/8/7
f 28/38/7 12/6/7 29/39/7

usemtl _defaultMat(Clone)

f 32/42/8 31/41/8 30/40/8
f 31/41/8 32/42/8 33/43/8
f 35/46/9 31/45/9 34/44/9
f 31/45/9 35/46/9 30/47/9
f 37/49/5 5/19/5 36/48/5
f 5/19/5 37/49/5 12/20/5
f 36/50/2 31/41/2 33/43/2
f 31/41/2 36/50/2 34/51/2
f 34/51/2 36/50/2 5/5/2
f 34/51/2 5/5/2 6/6/2
f 32/53/10 36/48/10 33/52/10
f 36/48/10 32/53/10 37/49/10
f 11/18/4 34/44/4 6/16/4
f 34/44/4 11/18/4 35/46/4
f 35/50/11 32/41/11 30/43/11
f 32/41/11 35/50/11 37/51/11
f 35/50/7 38/54/7 37/51/7
f 38/54/7 35/50/7 11/5/7
f 37/51/7 38/54/7 39/55/7
f 38/54/7 11/5/7 40/56/7
f 40/56/7 11/5/7 41/57/7
f 41/57/7 11/5/7 13/23/7
f 37/51/7 42/58/7 12/6/7
f 42/58/7 37/51/7 39/55/7
f 12/6/7 42/58/7 43/59/7
f 12/6/7 43/59/7 44/60/7
f 12/6/7 44/60/7 29/39/7

usemtl dark(Clone)

f 45/62/12 17/17/13 18/61/12
f 17/17/13 45/62/12 46/63/13
f 48/66/14 39/65/8 47/64/8
f 39/65/8 48/66/14 42/67/14
f 24/70/16 49/69/15 23/68/15
f 49/69/15 24/70/16 50/71/16
f 52/74/18 40/73/17 51/72/17
f 40/73/17 52/74/18 38/75/18
f 53/77/19 24/76/16 25/13/19
f 24/76/16 53/77/19 50/78/16
f 22/81/20 54/80/1 21/79/1
f 54/80/1 22/81/20 55/82/20
f 23/68/15 55/82/20 22/81/20
f 55/82/20 23/68/15 49/69/15
f 47/64/8 38/75/18 52/74/18
f 38/75/18 47/64/8 39/65/8
f 14/85/22 56/84/21 13/83/21
f 56/84/21 14/85/22 57/86/22
f 19/89/23 45/88/12 18/87/12
f 45/88/12 19/89/23 58/90/23
f 59/93/5 26/92/24 27/91/5
f 26/92/24 59/93/5 60/94/24
f 61/97/25 28/96/26 29/95/25
f 28/96/26 61/97/25 62/98/26
f 51/72/17 41/100/27 63/99/27
f 41/100/27 51/72/17 40/73/17
f 20/101/28 58/90/23 19/89/23
f 58/90/23 20/101/28 64/102/28
f 65/104/4 14/85/22 15/103/4
f 14/85/22 65/104/4 57/86/22
f 56/84/21 41/105/27 13/83/21
f 41/105/27 56/84/21 63/106/27
f 60/94/24 25/13/19 26/92/24
f 25/13/19 60/94/24 53/77/19
f 21/79/1 64/102/28 20/101/28
f 64/102/28 21/79/1 54/80/1
f 46/63/13 16/107/29 17/17/13
f 16/107/29 46/63/13 66/108/29
f 66/108/29 15/103/4 16/107/29
f 15/103/4 66/108/29 65/104/4
f 67/109/30 42/67/14 48/66/14
f 42/67/14 67/109/30 43/110/30
f 68/112/31 29/95/25 44/111/31
f 29/95/25 68/112/31 61/97/25
f 62/98/26 27/91/5 28/96/26
f 27/91/5 62/98/26 59/93/5
f 68/113/31 43/110/30 67/109/30
f 43/110/30 68/113/31 44/114/31
f 71/117/1 70/116/20 69/115/20
f 70/116/20 71/117/1 72/118/1
f 73/119/28 72/118/1 71/117/1
f 72/118/1 73/119/28 74/120/28
f 69/115/20 76/122/15 75/121/15
f 76/122/15 69/115/20 70/116/20
f 79/125/24 78/124/5 77/123/24
f 78/124/5 79/125/24 80/126/5
f 83/129/25 82/128/31 81/127/25
f 82/128/31 83/129/25 84/130/31
f 85/133/30 82/132/31 84/131/31
f 82/132/31 85/133/30 86/134/30
f 89/137/4 88/136/29 87/135/4
f 88/136/29 89/137/4 90/138/29
f 91/139/23 74/120/28 73/119/28
f 74/120/28 91/139/23 92/140/23
f 95/143/13 94/142/12 93/141/13
f 94/142/12 95/143/13 96/144/12
f 98/146/19 77/123/24 97/145/19
f 77/123/24 98/146/19 79/125/24
f 69/149/7 73/148/7 71/147/7
f 73/148/7 69/149/7 75/150/7
f 73/148/7 75/150/7 91/151/7
f 91/151/7 75/150/7 99/152/7
f 91/151/7 99/152/7 94/153/7
f 94/153/7 99/152/7 93/154/7
f 93/154/7 99/152/7 97/155/7
f 93/154/7 97/155/7 77/156/7
f 93/154/7 77/156/7 88/157/7
f 88/157/7 77/156/7 78/93/7
f 88/157/7 78/93/7 87/104/7
f 87/104/7 78/93/7 100/158/7
f 100/158/7 78/93/7 101/159/7
f 100/158/7 101/159/7 81/160/7
f 100/158/7 81/160/7 102/161/7
f 102/161/7 81/160/7 82/162/7
f 102/161/7 82/162/7 103/163/7
f 103/163/7 82/162/7 104/164/7
f 104/164/7 82/162/7 86/165/7
f 104/164/7 86/165/7 105/166/7
f 104/164/7 105/166/7 106/167/7
f 106/167/7 105/166/7 107/168/7
f 108/170/22 87/135/4 100/169/22
f 87/135/4 108/170/22 89/137/4
f 110/173/18 107/172/8 109/171/8
f 107/172/8 110/173/18 106/174/18
f 88/136/29 95/143/13 93/141/13
f 95/143/13 88/136/29 90/138/29
f 111/175/17 106/174/18 110/173/18
f 106/174/18 111/175/17 104/176/17
f 112/177/27 104/176/17 111/175/17
f 104/176/17 112/177/27 103/178/27
f 94/179/12 92/140/23 91/139/23
f 92/140/23 94/179/12 96/180/12
f 113/182/16 97/145/19 99/181/16
f 97/145/19 113/182/16 98/146/19
f 75/121/15 113/184/16 99/183/16
f 113/184/16 75/121/15 76/122/15
f 80/126/5 101/185/26 78/124/5
f 101/185/26 80/126/5 114/186/26
f 112/189/27 102/188/21 103/187/27
f 102/188/21 112/189/27 115/190/21
f 114/186/26 81/127/25 101/185/26
f 81/127/25 114/186/26 83/129/25
f 115/190/21 100/169/22 102/188/21
f 100/169/22 115/190/21 108/170/22
f 109/171/8 105/192/14 116/191/14
f 105/192/14 109/171/8 107/172/8
f 116/191/14 86/134/30 85/133/30
f 86/134/30 116/191/14 105/192/14
f 119/195/2 118/194/2 117/193/2
f 118/194/2 119/195/2 120/196/2
f 118/194/2 120/196/2 121/197/2
f 121/197/2 120/196/2 122/198/2
f 121/197/2 122/198/2 123/199/2
f 123/199/2 122/198/2 47/200/2
f 47/200/2 122/198/2 48/54/2
f 48/54/2 122/198/2 124/201/2
f 48/54/2 124/201/2 67/56/2
f 67/56/2 124/201/2 68/57/2
f 68/57/2 124/201/2 125/202/2
f 68/57/2 125/202/2 61/23/2
f 61/23/2 125/202/2 62/24/2
f 62/24/2 125/202/2 126/203/2
f 62/24/2 126/203/2 59/25/2
f 59/25/2 126/203/2 60/26/2
f 60/26/2 126/203/2 127/204/2
f 60/26/2 127/204/2 53/27/2
f 53/27/2 127/204/2 128/205/2
f 53/27/2 128/205/2 50/28/2
f 50/28/2 128/205/2 49/29/2
f 49/29/2 128/205/2 129/206/2
f 49/29/2 129/206/2 55/30/2
f 55/30/2 129/206/2 54/207/2
f 130/208/2 54/207/2 129/206/2
f 130/208/2 64/32/2 54/207/2
f 130/208/2 58/33/2 64/32/2
f 131/209/2 58/33/2 130/208/2
f 131/209/2 45/34/2 58/33/2
f 131/209/2 46/35/2 45/34/2
f 132/210/2 46/35/2 131/209/2
f 132/210/2 66/36/2 46/35/2
f 133/211/2 66/36/2 132/210/2
f 133/211/2 65/37/2 66/36/2
f 133/211/2 57/38/2 65/37/2
f 134/212/2 57/38/2 133/211/2
f 134/212/2 56/39/2 57/38/2
f 134/212/2 63/60/2 56/39/2
f 135/213/2 63/60/2 134/212/2
f 135/213/2 51/59/2 63/60/2
f 135/213/2 52/58/2 51/59/2
f 123/199/2 52/58/2 135/213/2
f 52/58/2 123/199/2 47/200/2
f 130/208/2 129/206/2 136/214/2
f 130/208/2 136/214/2 137/215/2
f 137/215/2 136/214/2 138/216/2
f 137/215/2 138/216/2 139/217/2
f 139/217/2 138/216/2 140/218/2
f 141/221/21 123/220/27 135/219/21
f 123/220/27 141/221/21 142/222/27
f 134/223/22 141/221/21 135/219/21
f 141/221/21 134/223/22 143/224/22
f 145/227/18 121/226/17 144/225/17
f 121/226/17 145/227/18 118/228/18
f 146/171/8 118/228/18 145/227/18
f 118/228/18 146/171/8 117/64/8
f 145/195/7 147/194/7 146/229/7
f 147/194/7 145/195/7 144/196/7
f 147/194/7 144/196/7 148/197/7
f 148/197/7 144/196/7 149/199/7
f 149/199/7 144/196/7 142/198/7
f 149/199/7 142/198/7 141/201/7
f 149/199/7 141/201/7 150/213/7
f 150/213/7 141/201/7 143/202/7
f 150/213/7 143/202/7 72/147/7
f 72/147/7 143/202/7 70/149/7
f 70/149/7 143/202/7 76/150/7
f 76/150/7 143/202/7 113/152/7
f 113/152/7 143/202/7 151/203/7
f 113/152/7 151/203/7 98/155/7
f 98/155/7 151/203/7 79/156/7
f 79/156/7 151/203/7 80/93/7
f 80/93/7 151/203/7 152/204/7
f 80/93/7 152/204/7 114/159/7
f 114/159/7 152/204/7 83/160/7
f 83/160/7 152/204/7 84/162/7
f 84/162/7 152/204/7 85/165/7
f 85/165/7 152/204/7 153/205/7
f 85/165/7 153/205/7 116/166/7
f 116/166/7 153/205/7 109/168/7
f 154/209/7 109/168/7 153/205/7
f 154/209/7 110/167/7 109/168/7
f 154/209/7 111/164/7 110/167/7
f 155/210/7 111/164/7 154/209/7
f 155/210/7 112/163/7 111/164/7
f 155/210/7 115/161/7 112/163/7
f 155/210/7 108/158/7 115/161/7
f 156/211/7 108/158/7 155/210/7
f 156/211/7 89/104/7 108/158/7
f 156/211/7 90/157/7 89/104/7
f 156/211/7 95/154/7 90/157/7
f 156/211/7 96/153/7 95/154/7
f 157/212/7 96/153/7 156/211/7
f 157/212/7 92/151/7 96/153/7
f 157/212/7 74/148/7 92/151/7
f 157/212/7 72/147/7 74/148/7
f 72/147/7 157/212/7 150/213/7
f 154/209/7 153/205/7 158/206/7
f 154/209/7 158/206/7 159/208/7
f 159/208/7 158/206/7 160/214/7
f 159/208/7 160/214/7 161/215/7
f 161/215/7 160/214/7 162/217/7
f 162/217/7 160/214/7 163/216/7
f 162/217/7 163/216/7 164/230/7
f 144/225/17 123/232/27 142/231/27
f 123/232/27 144/225/17 121/226/17
f 149/235/31 120/234/30 148/233/30
f 120/234/30 149/235/31 122/236/31
f 149/239/31 124/238/25 122/237/31
f 124/238/25 149/239/31 150/240/25
f 155/243/24 128/242/19 127/241/24
f 128/242/19 155/243/24 154/244/19
f 153/247/13 132/246/29 131/245/13
f 132/246/29 153/247/13 152/248/29
f 152/248/29 133/104/4 132/246/29
f 133/104/4 152/248/29 151/137/4
f 138/249/20 164/118/1 140/80/1
f 164/118/1 138/249/20 162/250/20
f 139/253/28 160/252/23 137/251/23
f 160/252/23 139/253/28 163/254/28
f 147/255/14 117/64/8 146/171/8
f 117/64/8 147/255/14 119/256/14
f 150/240/25 125/257/26 124/238/25
f 125/257/26 150/240/25 157/258/26
f 148/233/30 119/256/14 147/255/14
f 119/256/14 148/233/30 120/234/30
f 157/258/26 126/93/5 125/257/26
f 126/93/5 157/258/26 156/126/5
f 156/126/5 127/241/24 126/93/5
f 127/241/24 156/126/5 155/243/24
f 129/261/16 161/260/15 136/259/15
f 161/260/15 129/261/16 159/262/16
f 136/259/15 162/250/20 138/249/20
f 162/250/20 136/259/15 161/260/15
f 140/80/1 163/254/28 139/253/28
f 163/254/28 140/80/1 164/118/1
f 137/251/23 158/264/12 130/263/12
f 158/264/12 137/251/23 160/252/23
f 151/137/4 134/223/22 133/104/4
f 134/223/22 151/137/4 143/224/22
f 154/244/19 129/265/16 128/242/19
f 129/265/16 154/244/19 159/266/16
f 158/268/12 131/245/13 130/267/12
f 131/245/13 158/268/12 153/247/13

