# MagicaVoxel @ Ephtracy

# group
g Broadsword

# material
mtllib Broadsword.mtl
usemtl palette

# normals
vn -1 0 0
vn 1 0 0
vn 0 0 1
vn 0 0 -1
vn 0 -1 0
vn 0 1 0

# texcoords
vt 0.751953 0.5
vt 0.763672 0.5
vt 0.791016 0.5
vt 0.845703 0.5
vt 0.857422 0.5
vt 0.982422 0.5
vt 0.986328 0.5

# verts
v -0.5 0 0.5
v -0.5 0 -0.5
v -0.5 1 0.5
v -0.5 1 -0.5
v -0.5 2 0.5
v -0.5 2 -0.5
v -0.5 4 2.5
v -0.5 4 1.5
v -0.5 4 0.5
v -0.5 4 -0.5
v -0.5 4 -1.5
v -0.5 4 -2.5
v -0.5 5 2.5
v -0.5 5 1.5
v -0.5 5 0.5
v -0.5 5 -0.5
v -0.5 5 -1.5
v -0.5 5 -2.5
v -0.5 7 -0.5
v -0.5 7 -1.5
v -0.5 10 1.5
v -0.5 10 0.5
v -0.5 12 -0.5
v -0.5 12 -1.5
v -0.5 15 1.5
v -0.5 15 0.5
v -0.5 16 -0.5
v -0.5 16 -1.5
v -0.5 19 1.5
v -0.5 19 0.5
v -0.5 19 -0.5
v -0.5 22 0.5
v -0.5 22 -0.5
v 0.5 0 0.5
v 0.5 0 -0.5
v 0.5 1 0.5
v 0.5 1 -0.5
v 0.5 2 0.5
v 0.5 2 -0.5
v 0.5 4 2.5
v 0.5 4 1.5
v 0.5 4 0.5
v 0.5 4 -0.5
v 0.5 4 -1.5
v 0.5 4 -2.5
v 0.5 5 2.5
v 0.5 5 1.5
v 0.5 5 0.5
v 0.5 5 -0.5
v 0.5 5 -1.5
v 0.5 5 -2.5
v 0.5 7 -0.5
v 0.5 7 -1.5
v 0.5 10 1.5
v 0.5 10 0.5
v 0.5 12 -0.5
v 0.5 12 -1.5
v 0.5 15 1.5
v 0.5 15 0.5
v 0.5 16 -0.5
v 0.5 16 -1.5
v 0.5 19 1.5
v 0.5 19 0.5
v 0.5 19 -0.5
v 0.5 22 0.5
v 0.5 22 -0.5
v -0.5 4 2.5
v -0.5 5 2.5
v 0.5 4 2.5
v 0.5 5 2.5
v -0.5 5 1.5
v -0.5 10 1.5
v -0.5 15 1.5
v -0.5 19 1.5
v 0.5 5 1.5
v 0.5 10 1.5
v 0.5 15 1.5
v 0.5 19 1.5
v -0.5 0 0.5
v -0.5 1 0.5
v -0.5 2 0.5
v -0.5 4 0.5
v -0.5 19 0.5
v -0.5 22 0.5
v 0.5 0 0.5
v 0.5 1 0.5
v 0.5 2 0.5
v 0.5 4 0.5
v 0.5 19 0.5
v 0.5 22 0.5
v -0.5 0 -0.5
v -0.5 1 -0.5
v -0.5 2 -0.5
v -0.5 4 -0.5
v -0.5 16 -0.5
v -0.5 19 -0.5
v -0.5 22 -0.5
v 0.5 0 -0.5
v 0.5 1 -0.5
v 0.5 2 -0.5
v 0.5 4 -0.5
v 0.5 16 -0.5
v 0.5 19 -0.5
v 0.5 22 -0.5
v -0.5 5 -1.5
v -0.5 7 -1.5
v -0.5 12 -1.5
v -0.5 16 -1.5
v 0.5 5 -1.5
v 0.5 7 -1.5
v 0.5 12 -1.5
v 0.5 16 -1.5
v -0.5 4 -2.5
v -0.5 5 -2.5
v 0.5 4 -2.5
v 0.5 5 -2.5
v -0.5 0 0.5
v 0.5 0 0.5
v -0.5 0 -0.5
v 0.5 0 -0.5
v -0.5 4 2.5
v 0.5 4 2.5
v -0.5 4 1.5
v 0.5 4 1.5
v -0.5 4 0.5
v 0.5 4 0.5
v -0.5 4 -0.5
v 0.5 4 -0.5
v -0.5 4 -1.5
v 0.5 4 -1.5
v -0.5 4 -2.5
v 0.5 4 -2.5
v -0.5 5 2.5
v 0.5 5 2.5
v -0.5 5 1.5
v 0.5 5 1.5
v -0.5 5 -1.5
v 0.5 5 -1.5
v -0.5 5 -2.5
v 0.5 5 -2.5
v -0.5 16 -0.5
v 0.5 16 -0.5
v -0.5 16 -1.5
v 0.5 16 -1.5
v -0.5 19 1.5
v 0.5 19 1.5
v -0.5 19 0.5
v 0.5 19 0.5
v -0.5 22 0.5
v 0.5 22 0.5
v -0.5 22 -0.5
v 0.5 22 -0.5

# faces
f 3/2/1 2/2/1 1/2/1
f 4/2/1 2/2/1 3/2/1
f 5/1/1 4/1/1 3/1/1
f 6/1/1 4/1/1 5/1/1
f 9/2/1 6/2/1 5/2/1
f 10/2/1 6/2/1 9/2/1
f 13/4/1 8/4/1 7/4/1
f 14/6/1 9/6/1 8/6/1
f 14/4/1 8/4/1 13/4/1
f 15/7/1 10/7/1 9/7/1
f 15/6/1 9/6/1 14/6/1
f 16/6/1 11/6/1 10/6/1
f 16/7/1 10/7/1 15/7/1
f 17/4/1 12/4/1 11/4/1
f 17/6/1 11/6/1 16/6/1
f 18/4/1 12/4/1 17/4/1
f 19/3/1 16/3/1 15/3/1
f 19/5/1 17/5/1 16/5/1
f 20/5/1 17/5/1 19/5/1
f 21/5/1 15/5/1 14/5/1
f 22/3/1 19/3/1 15/3/1
f 22/5/1 15/5/1 21/5/1
f 22/3/1 20/3/1 19/3/1
f 23/3/1 22/3/1 21/3/1
f 23/3/1 20/3/1 22/3/1
f 24/3/1 20/3/1 23/3/1
f 25/3/1 23/3/1 21/3/1
f 26/3/1 23/3/1 25/3/1
f 27/5/1 24/5/1 23/5/1
f 27/3/1 23/3/1 26/3/1
f 28/5/1 24/5/1 27/5/1
f 29/5/1 26/5/1 25/5/1
f 30/3/1 27/3/1 26/3/1
f 30/5/1 26/5/1 29/5/1
f 31/3/1 27/3/1 30/3/1
f 32/5/1 31/5/1 30/5/1
f 33/5/1 31/5/1 32/5/1
f 34/2/2 35/2/2 36/2/2
f 36/2/2 35/2/2 37/2/2
f 36/1/2 37/1/2 38/1/2
f 38/1/2 37/1/2 39/1/2
f 38/2/2 39/2/2 42/2/2
f 42/2/2 39/2/2 43/2/2
f 40/4/2 41/4/2 46/4/2
f 41/6/2 42/6/2 47/6/2
f 46/4/2 41/4/2 47/4/2
f 42/7/2 43/7/2 48/7/2
f 47/6/2 42/6/2 48/6/2
f 43/6/2 44/6/2 49/6/2
f 48/7/2 43/7/2 49/7/2
f 44/4/2 45/4/2 50/4/2
f 49/6/2 44/6/2 50/6/2
f 50/4/2 45/4/2 51/4/2
f 48/3/2 49/3/2 52/3/2
f 49/5/2 50/5/2 52/5/2
f 52/5/2 50/5/2 53/5/2
f 47/5/2 48/5/2 54/5/2
f 48/3/2 52/3/2 55/3/2
f 54/5/2 48/5/2 55/5/2
f 52/3/2 53/3/2 55/3/2
f 54/3/2 55/3/2 56/3/2
f 55/3/2 53/3/2 56/3/2
f 56/3/2 53/3/2 57/3/2
f 54/3/2 56/3/2 58/3/2
f 58/3/2 56/3/2 59/3/2
f 56/5/2 57/5/2 60/5/2
f 59/3/2 56/3/2 60/3/2
f 60/5/2 57/5/2 61/5/2
f 58/5/2 59/5/2 62/5/2
f 59/3/2 60/3/2 63/3/2
f 62/5/2 59/5/2 63/5/2
f 63/3/2 60/3/2 64/3/2
f 63/5/2 64/5/2 65/5/2
f 65/5/2 64/5/2 66/5/2
f 69/4/3 68/4/3 67/4/3
f 70/4/3 68/4/3 69/4/3
f 75/5/3 72/5/3 71/5/3
f 76/3/3 73/3/3 72/3/3
f 76/5/3 72/5/3 75/5/3
f 77/5/3 74/5/3 73/5/3
f 77/3/3 73/3/3 76/3/3
f 78/5/3 74/5/3 77/5/3
f 85/2/3 80/2/3 79/2/3
f 86/1/3 81/1/3 80/1/3
f 86/2/3 80/2/3 85/2/3
f 87/2/3 82/2/3 81/2/3
f 87/1/3 81/1/3 86/1/3
f 88/2/3 82/2/3 87/2/3
f 89/5/3 84/5/3 83/5/3
f 90/5/3 84/5/3 89/5/3
f 91/2/4 92/2/4 98/2/4
f 92/1/4 93/1/4 99/1/4
f 98/2/4 92/2/4 99/2/4
f 93/2/4 94/2/4 100/2/4
f 99/1/4 93/1/4 100/1/4
f 100/2/4 94/2/4 101/2/4
f 95/3/4 96/3/4 102/3/4
f 96/5/4 97/5/4 103/5/4
f 102/3/4 96/3/4 103/3/4
f 103/5/4 97/5/4 104/5/4
f 105/5/4 106/5/4 109/5/4
f 106/3/4 107/3/4 110/3/4
f 109/5/4 106/5/4 110/5/4
f 107/5/4 108/5/4 111/5/4
f 110/3/4 107/3/4 111/3/4
f 111/5/4 108/5/4 112/5/4
f 113/4/4 114/4/4 115/4/4
f 115/4/4 114/4/4 116/4/4
f 119/2/5 118/2/5 117/2/5
f 120/2/5 118/2/5 119/2/5
f 123/4/5 122/4/5 121/4/5
f 124/4/5 122/4/5 123/4/5
f 125/6/5 124/6/5 123/6/5
f 126/6/5 124/6/5 125/6/5
f 129/6/5 128/6/5 127/6/5
f 130/6/5 128/6/5 129/6/5
f 131/4/5 130/4/5 129/4/5
f 132/4/5 130/4/5 131/4/5
f 133/4/6 134/4/6 135/4/6
f 135/4/6 134/4/6 136/4/6
f 137/4/6 138/4/6 139/4/6
f 139/4/6 138/4/6 140/4/6
f 141/5/6 142/5/6 143/5/6
f 143/5/6 142/5/6 144/5/6
f 145/5/6 146/5/6 147/5/6
f 147/5/6 146/5/6 148/5/6
f 149/5/6 150/5/6 151/5/6
f 151/5/6 150/5/6 152/5/6
